<?xml version="1.0" encoding="utf-8"?>
<!-- Generator: Adobe Illustrator 27.5.0, SVG Export Plug-In . SVG Version: 6.00 Build 0)  -->
<svg version="1.1" xmlns="http://www.w3.org/2000/svg" xmlns:xlink="http://www.w3.org/1999/xlink" x="0px" y="0px"
	 viewBox="0 0 750 500" style="enable-background:new 0 0 750 500;" xml:space="preserve">
<g id="BACKGROUND">
	<rect style="fill:#F0F2F2;" width="750" height="500"/>
</g>
<g id="OBJECTS">
	<g>
		<defs>
			<rect id="SVGID_1_" width="750" height="500"/>
		</defs>
		<clipPath id="SVGID_00000024719356270642474980000001846895642473077647_">
			<use xlink:href="#SVGID_1_"  style="overflow:visible;"/>
		</clipPath>
		<g style="clip-path:url(#SVGID_00000024719356270642474980000001846895642473077647_);">
			<g>
				<path style="fill:#F8F9F9;" d="M374.999,379.227c-71.255,0-129.226-57.971-129.226-129.227
					c0-71.256,57.971-129.226,129.226-129.226c71.256,0,129.227,57.971,129.227,129.226
					C504.227,321.256,446.256,379.227,374.999,379.227z M374.999,122.013c-70.572,0-127.986,57.415-127.986,127.987
					c0,70.572,57.414,127.987,127.986,127.987S502.987,320.572,502.987,250C502.987,179.428,445.572,122.013,374.999,122.013z"/>
			</g>
			<g>
				<path style="fill:#F8F9F9;" d="M374.999,369.611c-65.952,0-119.61-53.657-119.61-119.61c0-65.954,53.657-119.611,119.61-119.611
					c65.953,0,119.61,53.657,119.61,119.611C494.609,315.954,440.952,369.611,374.999,369.611z M374.999,131.629
					c-65.27,0-118.37,53.101-118.37,118.371c0,65.27,53.1,118.37,118.37,118.37s118.37-53.101,118.37-118.37
					C493.369,184.73,440.269,131.629,374.999,131.629z"/>
			</g>
			<g>
				<path style="fill:#F8F9F9;" d="M374.999,359.995c-60.651,0-109.993-49.343-109.993-109.994s49.342-109.995,109.993-109.995
					s109.993,49.344,109.993,109.995S435.65,359.995,374.999,359.995z M374.999,141.246c-59.967,0-108.754,48.787-108.754,108.755
					c0,59.968,48.787,108.754,108.754,108.754c59.967,0,108.754-48.787,108.754-108.754
					C483.753,190.033,434.966,141.246,374.999,141.246z"/>
			</g>
			<g>
				<path style="fill:#F8F9F9;" d="M374.999,350.379c-55.348,0-100.377-45.03-100.377-100.378
					c0-55.349,45.029-100.378,100.377-100.378c55.349,0,100.377,45.029,100.377,100.378
					C475.377,305.349,430.348,350.379,374.999,350.379z M374.999,150.862c-54.664,0-99.138,44.474-99.138,99.139
					s44.473,99.138,99.138,99.138c54.664,0,99.138-44.473,99.138-99.138S429.664,150.862,374.999,150.862z"/>
			</g>
			<g>
				<path style="fill:#F8F9F9;" d="M374.999,340.762c-50.046,0-90.761-40.715-90.761-90.762s40.715-90.762,90.761-90.762
					s90.761,40.716,90.761,90.762S425.045,340.762,374.999,340.762z M374.999,160.478c-49.362,0-89.521,40.16-89.521,89.523
					c0,49.362,40.16,89.522,89.521,89.522s89.521-40.16,89.521-89.522C464.521,200.638,424.361,160.478,374.999,160.478z"/>
			</g>
			<g>
				<path style="fill:#F8F9F9;" d="M374.999,331.146c-44.743,0-81.145-36.402-81.145-81.145c0-44.744,36.402-81.146,81.145-81.146
					c44.743,0,81.145,36.402,81.145,81.146C456.144,294.744,419.743,331.146,374.999,331.146z M374.999,170.094
					c-44.06,0-79.905,35.846-79.905,79.906c0,44.06,35.845,79.906,79.905,79.906c44.06,0,79.905-35.845,79.905-79.906
					C454.905,205.94,419.06,170.094,374.999,170.094z"/>
			</g>
		</g>
		<g style="clip-path:url(#SVGID_00000024719356270642474980000001846895642473077647_);">
			<path style="fill:#C8CDCD;" d="M703.38,171.214c-0.101-0.069-0.207-0.122-0.323-0.175c-0.117-0.042-0.228-0.079-0.35-0.106
				c-0.116-0.021-0.244-0.032-0.365-0.037c-0.492,0.005-0.974,0.202-1.323,0.551c-0.09,0.09-0.164,0.185-0.233,0.285
				c-0.069,0.101-0.127,0.212-0.175,0.323c-0.047,0.111-0.079,0.228-0.105,0.349c-0.026,0.121-0.037,0.249-0.037,0.365
				c0,0.614,0.312,1.213,0.836,1.556c0.1,0.069,0.211,0.128,0.323,0.175c0.111,0.048,0.227,0.08,0.349,0.106
				c0.122,0.026,0.243,0.032,0.365,0.037c0.117,0,0.244-0.011,0.366-0.037c0.122-0.026,0.238-0.058,0.349-0.106
				c0.112-0.048,0.223-0.106,0.323-0.175c0.105-0.063,0.196-0.142,0.286-0.232c0.349-0.349,0.545-0.832,0.55-1.324
				c-0.005-0.492-0.201-0.973-0.55-1.323C703.581,171.362,703.481,171.282,703.38,171.214z M695.886,163.72
				c-0.101-0.069-0.207-0.122-0.322-0.175c-0.117-0.042-0.228-0.079-0.35-0.106c-0.116-0.021-0.244-0.031-0.365-0.037
				c-0.492,0.005-0.974,0.202-1.323,0.551c-0.09,0.09-0.164,0.185-0.233,0.285c-0.069,0.101-0.127,0.212-0.175,0.323
				c-0.047,0.111-0.079,0.228-0.105,0.35c-0.026,0.121-0.037,0.249-0.037,0.365c0,0.614,0.312,1.213,0.836,1.556
				c0.1,0.069,0.211,0.128,0.323,0.175c0.111,0.048,0.227,0.08,0.349,0.106c0.122,0.026,0.243,0.031,0.365,0.037
				c0.117,0,0.244-0.011,0.366-0.037c0.121-0.026,0.238-0.058,0.349-0.106c0.112-0.048,0.223-0.106,0.323-0.175
				c0.106-0.063,0.196-0.142,0.286-0.232c0.349-0.349,0.545-0.832,0.551-1.324c-0.005-0.492-0.201-0.973-0.551-1.323
				C696.088,163.868,695.987,163.789,695.886,163.72z M688.393,156.226c-0.101-0.069-0.207-0.122-0.323-0.175
				c-0.117-0.042-0.228-0.079-0.35-0.106c-0.116-0.021-0.243-0.031-0.365-0.037c-0.492,0.005-0.974,0.202-1.323,0.551
				c-0.09,0.09-0.164,0.185-0.233,0.285c-0.069,0.101-0.127,0.212-0.175,0.323c-0.047,0.111-0.079,0.228-0.105,0.349
				c-0.026,0.122-0.037,0.249-0.037,0.365c0,0.614,0.312,1.213,0.836,1.556c0.1,0.069,0.211,0.128,0.323,0.175
				c0.111,0.048,0.228,0.08,0.349,0.106c0.122,0.026,0.243,0.032,0.365,0.037c0.117,0,0.244-0.011,0.366-0.037
				c0.121-0.026,0.238-0.058,0.349-0.106c0.112-0.048,0.223-0.106,0.323-0.175c0.105-0.063,0.196-0.142,0.286-0.232
				c0.349-0.349,0.545-0.832,0.551-1.324c-0.005-0.492-0.201-0.973-0.551-1.323C688.594,156.375,688.494,156.295,688.393,156.226z
				 M680.899,148.733c-0.101-0.069-0.207-0.122-0.323-0.175c-0.117-0.042-0.228-0.079-0.35-0.106
				c-0.116-0.021-0.244-0.032-0.365-0.037c-0.492,0.005-0.974,0.202-1.323,0.551c-0.09,0.09-0.164,0.185-0.233,0.285
				c-0.069,0.101-0.127,0.212-0.175,0.323c-0.047,0.111-0.079,0.228-0.106,0.349c-0.026,0.121-0.037,0.249-0.037,0.365
				c0,0.614,0.312,1.213,0.836,1.556c0.1,0.069,0.211,0.128,0.323,0.175c0.111,0.048,0.228,0.08,0.349,0.106
				c0.122,0.026,0.243,0.031,0.365,0.037c0.117,0,0.243-0.011,0.365-0.037c0.121-0.026,0.238-0.058,0.349-0.106
				c0.112-0.048,0.223-0.106,0.323-0.175c0.105-0.063,0.196-0.142,0.286-0.232c0.35-0.349,0.545-0.832,0.551-1.324
				c-0.005-0.492-0.201-0.973-0.551-1.323C681.1,148.881,681,148.801,680.899,148.733z M673.406,141.239
				c-0.101-0.069-0.207-0.122-0.323-0.175c-0.117-0.042-0.228-0.079-0.35-0.106c-0.116-0.021-0.243-0.032-0.365-0.037
				c-0.492,0.005-0.974,0.202-1.323,0.551c-0.09,0.09-0.164,0.185-0.233,0.285c-0.069,0.101-0.127,0.212-0.175,0.323
				c-0.047,0.111-0.079,0.228-0.106,0.349c-0.026,0.122-0.037,0.249-0.037,0.365c0,0.614,0.312,1.213,0.836,1.556
				c0.1,0.069,0.211,0.128,0.323,0.175c0.111,0.048,0.227,0.08,0.349,0.106c0.122,0.026,0.243,0.032,0.365,0.037
				c0.117,0,0.243-0.011,0.365-0.037c0.121-0.026,0.238-0.058,0.349-0.106c0.112-0.047,0.223-0.106,0.323-0.175
				c0.105-0.063,0.196-0.142,0.286-0.232c0.349-0.349,0.545-0.832,0.551-1.324c-0.005-0.492-0.201-0.973-0.551-1.323
				C673.607,141.387,673.506,141.308,673.406,141.239z M665.912,133.745c-0.101-0.069-0.207-0.122-0.323-0.175
				c-0.117-0.042-0.228-0.079-0.35-0.106c-0.116-0.021-0.243-0.031-0.365-0.037c-0.492,0.005-0.974,0.202-1.323,0.551
				c-0.09,0.09-0.164,0.185-0.233,0.285c-0.069,0.101-0.127,0.212-0.175,0.323c-0.047,0.111-0.079,0.228-0.105,0.349
				c-0.026,0.121-0.037,0.249-0.037,0.365c0,0.614,0.312,1.213,0.836,1.556c0.1,0.069,0.211,0.128,0.323,0.175
				c0.111,0.048,0.227,0.08,0.349,0.106c0.122,0.026,0.243,0.031,0.365,0.037c0.117,0,0.244-0.011,0.366-0.037
				c0.121-0.026,0.238-0.058,0.349-0.106c0.112-0.048,0.223-0.106,0.323-0.175c0.105-0.063,0.196-0.142,0.286-0.232
				c0.349-0.349,0.545-0.832,0.55-1.324c-0.005-0.492-0.201-0.973-0.55-1.323C666.113,133.894,666.013,133.814,665.912,133.745z
				 M710.874,163.72c-0.101-0.069-0.207-0.122-0.323-0.175c-0.117-0.042-0.228-0.079-0.35-0.106
				c-0.116-0.021-0.244-0.031-0.365-0.037c-0.492,0.005-0.974,0.202-1.323,0.551c-0.09,0.09-0.164,0.185-0.233,0.285
				c-0.069,0.101-0.127,0.212-0.175,0.323c-0.047,0.111-0.079,0.228-0.106,0.35c-0.026,0.121-0.037,0.249-0.037,0.365
				c0,0.614,0.312,1.213,0.836,1.556c0.1,0.069,0.211,0.128,0.323,0.175c0.111,0.048,0.227,0.08,0.349,0.106
				c0.122,0.026,0.243,0.031,0.365,0.037c0.117,0,0.243-0.011,0.365-0.037c0.122-0.026,0.238-0.058,0.349-0.106
				c0.112-0.048,0.223-0.106,0.323-0.175c0.105-0.063,0.196-0.142,0.286-0.232c0.349-0.349,0.545-0.832,0.55-1.324
				c-0.005-0.492-0.201-0.973-0.55-1.323C711.075,163.868,710.975,163.789,710.874,163.72z M703.38,156.226
				c-0.101-0.069-0.207-0.122-0.323-0.175c-0.117-0.042-0.228-0.079-0.35-0.106c-0.116-0.021-0.244-0.031-0.365-0.037
				c-0.492,0.005-0.974,0.202-1.323,0.551c-0.09,0.09-0.164,0.185-0.233,0.285c-0.069,0.101-0.127,0.212-0.175,0.323
				c-0.047,0.111-0.079,0.228-0.105,0.349c-0.026,0.122-0.037,0.249-0.037,0.365c0,0.614,0.312,1.213,0.836,1.556
				c0.1,0.069,0.211,0.128,0.323,0.175c0.111,0.048,0.227,0.08,0.349,0.106c0.122,0.026,0.243,0.032,0.365,0.037
				c0.117,0,0.244-0.011,0.366-0.037c0.122-0.026,0.238-0.058,0.349-0.106c0.112-0.048,0.223-0.106,0.323-0.175
				c0.105-0.063,0.196-0.142,0.286-0.232c0.349-0.349,0.545-0.832,0.55-1.324c-0.005-0.492-0.201-0.973-0.55-1.323
				C703.581,156.375,703.481,156.295,703.38,156.226z M695.886,148.733c-0.101-0.069-0.207-0.122-0.322-0.175
				c-0.117-0.042-0.228-0.079-0.35-0.106c-0.116-0.021-0.244-0.032-0.365-0.037c-0.492,0.005-0.974,0.202-1.323,0.551
				c-0.09,0.09-0.164,0.185-0.233,0.285c-0.069,0.101-0.127,0.212-0.175,0.323c-0.047,0.111-0.079,0.228-0.105,0.349
				c-0.026,0.121-0.037,0.249-0.037,0.365c0,0.614,0.312,1.213,0.836,1.556c0.1,0.069,0.211,0.128,0.323,0.175
				c0.111,0.048,0.227,0.08,0.349,0.106c0.122,0.026,0.243,0.031,0.365,0.037c0.117,0,0.244-0.011,0.366-0.037
				c0.121-0.026,0.238-0.058,0.349-0.106c0.112-0.048,0.223-0.106,0.323-0.175c0.106-0.063,0.196-0.142,0.286-0.232
				c0.349-0.349,0.545-0.832,0.551-1.324c-0.005-0.492-0.201-0.973-0.551-1.323C696.088,148.881,695.987,148.801,695.886,148.733z
				 M688.393,141.239c-0.101-0.069-0.207-0.122-0.323-0.175c-0.117-0.042-0.228-0.079-0.35-0.106
				c-0.116-0.021-0.243-0.032-0.365-0.037c-0.492,0.005-0.974,0.202-1.323,0.551c-0.09,0.09-0.164,0.185-0.233,0.285
				c-0.069,0.101-0.127,0.212-0.175,0.323c-0.047,0.111-0.079,0.228-0.105,0.349c-0.026,0.122-0.037,0.249-0.037,0.365
				c0,0.614,0.312,1.213,0.836,1.556c0.1,0.069,0.211,0.128,0.323,0.175c0.111,0.048,0.228,0.08,0.349,0.106
				c0.122,0.026,0.243,0.032,0.365,0.037c0.117,0,0.244-0.011,0.366-0.037c0.121-0.026,0.238-0.058,0.349-0.106
				c0.112-0.047,0.223-0.106,0.323-0.175c0.105-0.063,0.196-0.142,0.286-0.232c0.349-0.349,0.545-0.832,0.551-1.324
				c-0.005-0.492-0.201-0.973-0.551-1.323C688.594,141.387,688.494,141.308,688.393,141.239z M680.899,133.745
				c-0.101-0.069-0.207-0.122-0.323-0.175c-0.117-0.042-0.228-0.079-0.35-0.106c-0.116-0.021-0.244-0.031-0.365-0.037
				c-0.492,0.005-0.974,0.202-1.323,0.551c-0.09,0.09-0.164,0.185-0.233,0.285c-0.069,0.101-0.127,0.212-0.175,0.323
				c-0.047,0.111-0.079,0.228-0.106,0.349c-0.026,0.121-0.037,0.249-0.037,0.365c0,0.614,0.312,1.213,0.836,1.556
				c0.1,0.069,0.211,0.128,0.323,0.175c0.111,0.048,0.228,0.08,0.349,0.106c0.122,0.026,0.243,0.031,0.365,0.037
				c0.117,0,0.243-0.011,0.365-0.037c0.121-0.026,0.238-0.058,0.349-0.106c0.112-0.048,0.223-0.106,0.323-0.175
				c0.105-0.063,0.196-0.142,0.286-0.232c0.35-0.349,0.545-0.832,0.551-1.324c-0.005-0.492-0.201-0.973-0.551-1.323
				C681.1,133.894,681,133.814,680.899,133.745z M673.406,126.252c-0.101-0.069-0.207-0.122-0.323-0.175
				c-0.117-0.042-0.228-0.079-0.35-0.106c-0.116-0.021-0.243-0.032-0.365-0.037c-0.492,0.005-0.974,0.202-1.323,0.551
				c-0.09,0.09-0.164,0.185-0.233,0.285c-0.069,0.101-0.127,0.212-0.175,0.323c-0.047,0.111-0.079,0.228-0.106,0.349
				c-0.026,0.121-0.037,0.249-0.037,0.365c0,0.614,0.312,1.213,0.836,1.556c0.1,0.069,0.211,0.128,0.323,0.175
				c0.111,0.048,0.227,0.08,0.349,0.106c0.122,0.026,0.243,0.032,0.365,0.037c0.117,0,0.243-0.011,0.365-0.037
				c0.121-0.026,0.238-0.058,0.349-0.106c0.112-0.048,0.223-0.106,0.323-0.175c0.105-0.063,0.196-0.142,0.286-0.232
				c0.349-0.35,0.545-0.832,0.551-1.324c-0.005-0.492-0.201-0.973-0.551-1.323C673.607,126.4,673.506,126.321,673.406,126.252z
				 M718.367,156.226c-0.101-0.069-0.207-0.122-0.323-0.175c-0.117-0.042-0.228-0.079-0.35-0.106
				c-0.116-0.021-0.243-0.031-0.365-0.037c-0.492,0.005-0.974,0.202-1.323,0.551c-0.09,0.09-0.164,0.185-0.233,0.285
				c-0.069,0.101-0.127,0.212-0.175,0.323c-0.047,0.111-0.079,0.228-0.105,0.349c-0.026,0.122-0.037,0.249-0.037,0.365
				c0,0.614,0.312,1.213,0.836,1.556c0.1,0.069,0.211,0.128,0.323,0.175c0.111,0.048,0.227,0.08,0.349,0.106
				c0.122,0.026,0.244,0.032,0.366,0.037c0.117,0,0.243-0.011,0.365-0.037c0.122-0.026,0.238-0.058,0.349-0.106
				c0.112-0.048,0.223-0.106,0.323-0.175c0.106-0.063,0.196-0.142,0.286-0.232c0.349-0.349,0.545-0.832,0.551-1.324
				c-0.005-0.492-0.201-0.973-0.551-1.323C718.568,156.375,718.468,156.295,718.367,156.226z M710.874,148.733
				c-0.101-0.069-0.207-0.122-0.323-0.175c-0.117-0.042-0.228-0.079-0.35-0.106c-0.116-0.021-0.244-0.032-0.365-0.037
				c-0.492,0.005-0.974,0.202-1.323,0.551c-0.09,0.09-0.164,0.185-0.233,0.285c-0.069,0.101-0.127,0.212-0.175,0.323
				c-0.047,0.111-0.079,0.228-0.106,0.349c-0.026,0.121-0.037,0.249-0.037,0.365c0,0.614,0.312,1.213,0.836,1.556
				c0.1,0.069,0.211,0.128,0.323,0.175c0.111,0.048,0.227,0.08,0.349,0.106c0.122,0.026,0.243,0.031,0.365,0.037
				c0.117,0,0.243-0.011,0.365-0.037c0.122-0.026,0.238-0.058,0.349-0.106c0.112-0.048,0.223-0.106,0.323-0.175
				c0.105-0.063,0.196-0.142,0.286-0.232c0.349-0.349,0.545-0.832,0.55-1.324c-0.005-0.492-0.201-0.973-0.55-1.323
				C711.075,148.881,710.975,148.801,710.874,148.733z M703.38,141.239c-0.101-0.069-0.207-0.122-0.323-0.175
				c-0.117-0.042-0.228-0.079-0.35-0.106c-0.116-0.021-0.244-0.032-0.365-0.037c-0.492,0.005-0.974,0.202-1.323,0.551
				c-0.09,0.09-0.164,0.185-0.233,0.285c-0.069,0.101-0.127,0.212-0.175,0.323c-0.047,0.111-0.079,0.228-0.105,0.349
				c-0.026,0.122-0.037,0.249-0.037,0.365c0,0.614,0.312,1.213,0.836,1.556c0.1,0.069,0.211,0.128,0.323,0.175
				c0.111,0.048,0.227,0.08,0.349,0.106c0.122,0.026,0.243,0.032,0.365,0.037c0.117,0,0.244-0.011,0.366-0.037
				c0.122-0.026,0.238-0.058,0.349-0.106c0.112-0.047,0.223-0.106,0.323-0.175c0.105-0.063,0.196-0.142,0.286-0.232
				c0.349-0.349,0.545-0.832,0.55-1.324c-0.005-0.492-0.201-0.973-0.55-1.323C703.581,141.387,703.481,141.308,703.38,141.239z
				 M695.886,133.745c-0.101-0.069-0.207-0.122-0.322-0.175c-0.117-0.042-0.228-0.079-0.35-0.106
				c-0.116-0.021-0.244-0.031-0.365-0.037c-0.492,0.005-0.974,0.202-1.323,0.551c-0.09,0.09-0.164,0.185-0.233,0.285
				c-0.069,0.101-0.127,0.212-0.175,0.323c-0.047,0.111-0.079,0.228-0.105,0.349c-0.026,0.121-0.037,0.249-0.037,0.365
				c0,0.614,0.312,1.213,0.836,1.556c0.1,0.069,0.211,0.128,0.323,0.175c0.111,0.048,0.227,0.08,0.349,0.106
				c0.122,0.026,0.243,0.031,0.365,0.037c0.117,0,0.244-0.011,0.366-0.037c0.121-0.026,0.238-0.058,0.349-0.106
				c0.112-0.048,0.223-0.106,0.323-0.175c0.106-0.063,0.196-0.142,0.286-0.232c0.349-0.349,0.545-0.832,0.551-1.324
				c-0.005-0.492-0.201-0.973-0.551-1.323C696.088,133.894,695.987,133.814,695.886,133.745z M688.393,126.252
				c-0.101-0.069-0.207-0.122-0.323-0.175c-0.117-0.042-0.228-0.079-0.35-0.106c-0.116-0.021-0.243-0.032-0.365-0.037
				c-0.492,0.005-0.974,0.202-1.323,0.551c-0.09,0.09-0.164,0.185-0.233,0.285c-0.069,0.101-0.127,0.212-0.175,0.323
				c-0.047,0.111-0.079,0.228-0.105,0.349c-0.026,0.121-0.037,0.249-0.037,0.365c0,0.614,0.312,1.213,0.836,1.556
				c0.1,0.069,0.211,0.128,0.323,0.175c0.111,0.048,0.228,0.08,0.349,0.106c0.122,0.026,0.243,0.032,0.365,0.037
				c0.117,0,0.244-0.011,0.366-0.037c0.121-0.026,0.238-0.058,0.349-0.106c0.112-0.048,0.223-0.106,0.323-0.175
				c0.105-0.063,0.196-0.142,0.286-0.232c0.349-0.35,0.545-0.832,0.551-1.324c-0.005-0.492-0.201-0.973-0.551-1.323
				C688.594,126.4,688.494,126.321,688.393,126.252z M680.899,118.758c-0.101-0.069-0.207-0.122-0.323-0.175
				c-0.117-0.042-0.228-0.079-0.35-0.106c-0.116-0.021-0.244-0.032-0.365-0.037c-0.492,0.005-0.974,0.202-1.323,0.551
				c-0.09,0.09-0.164,0.185-0.233,0.285c-0.069,0.101-0.127,0.212-0.175,0.323c-0.047,0.111-0.079,0.228-0.106,0.349
				c-0.026,0.121-0.037,0.249-0.037,0.365c0,0.614,0.312,1.213,0.836,1.556c0.1,0.069,0.211,0.128,0.323,0.175
				c0.111,0.047,0.228,0.08,0.349,0.106c0.122,0.026,0.243,0.032,0.365,0.037c0.117,0,0.243-0.011,0.365-0.037
				c0.121-0.026,0.238-0.058,0.349-0.106c0.112-0.048,0.223-0.106,0.323-0.175c0.105-0.063,0.196-0.142,0.286-0.232
				c0.35-0.349,0.545-0.832,0.551-1.324c-0.005-0.492-0.201-0.973-0.551-1.323C681.1,118.907,681,118.827,680.899,118.758z
				 M725.861,148.733c-0.101-0.069-0.207-0.122-0.323-0.175c-0.117-0.042-0.228-0.079-0.35-0.106
				c-0.116-0.021-0.244-0.032-0.365-0.037c-0.492,0.005-0.974,0.202-1.323,0.551c-0.09,0.09-0.164,0.185-0.233,0.285
				c-0.069,0.101-0.127,0.212-0.175,0.323c-0.047,0.111-0.079,0.228-0.105,0.349c-0.026,0.121-0.037,0.249-0.037,0.365
				c0,0.614,0.312,1.213,0.836,1.556c0.1,0.069,0.211,0.128,0.323,0.175c0.111,0.048,0.227,0.08,0.349,0.106
				c0.122,0.026,0.243,0.031,0.365,0.037c0.117,0,0.243-0.011,0.365-0.037c0.121-0.026,0.238-0.058,0.349-0.106
				c0.112-0.048,0.223-0.106,0.323-0.175c0.105-0.063,0.196-0.142,0.286-0.232c0.349-0.349,0.545-0.832,0.551-1.324
				c-0.005-0.492-0.201-0.973-0.551-1.323C726.062,148.881,725.962,148.801,725.861,148.733z M718.367,141.239
				c-0.101-0.069-0.207-0.122-0.323-0.175c-0.117-0.042-0.228-0.079-0.35-0.106c-0.116-0.021-0.243-0.032-0.365-0.037
				c-0.492,0.005-0.974,0.202-1.323,0.551c-0.09,0.09-0.164,0.185-0.233,0.285c-0.069,0.101-0.127,0.212-0.175,0.323
				c-0.047,0.111-0.079,0.228-0.105,0.349c-0.026,0.122-0.037,0.249-0.037,0.365c0,0.614,0.312,1.213,0.836,1.556
				c0.1,0.069,0.211,0.128,0.323,0.175c0.111,0.048,0.227,0.08,0.349,0.106c0.122,0.026,0.244,0.032,0.366,0.037
				c0.117,0,0.243-0.011,0.365-0.037c0.122-0.026,0.238-0.058,0.349-0.106c0.112-0.047,0.223-0.106,0.323-0.175
				c0.106-0.063,0.196-0.142,0.286-0.232c0.349-0.349,0.545-0.832,0.551-1.324c-0.005-0.492-0.201-0.973-0.551-1.323
				C718.568,141.387,718.468,141.308,718.367,141.239z M710.874,133.745c-0.101-0.069-0.207-0.122-0.323-0.175
				c-0.117-0.042-0.228-0.079-0.35-0.106c-0.116-0.021-0.244-0.031-0.365-0.037c-0.492,0.005-0.974,0.202-1.323,0.551
				c-0.09,0.09-0.164,0.185-0.233,0.285c-0.069,0.101-0.127,0.212-0.175,0.323c-0.047,0.111-0.079,0.228-0.106,0.349
				c-0.026,0.121-0.037,0.249-0.037,0.365c0,0.614,0.312,1.213,0.836,1.556c0.1,0.069,0.211,0.128,0.323,0.175
				c0.111,0.048,0.227,0.08,0.349,0.106c0.122,0.026,0.243,0.031,0.365,0.037c0.117,0,0.243-0.011,0.365-0.037
				c0.122-0.026,0.238-0.058,0.349-0.106c0.112-0.048,0.223-0.106,0.323-0.175c0.105-0.063,0.196-0.142,0.286-0.232
				c0.349-0.349,0.545-0.832,0.55-1.324c-0.005-0.492-0.201-0.973-0.55-1.323C711.075,133.894,710.975,133.814,710.874,133.745z
				 M703.38,126.252c-0.101-0.069-0.207-0.122-0.323-0.175c-0.117-0.042-0.228-0.079-0.35-0.106
				c-0.116-0.021-0.244-0.032-0.365-0.037c-0.492,0.005-0.974,0.202-1.323,0.551c-0.09,0.09-0.164,0.185-0.233,0.285
				c-0.069,0.101-0.127,0.212-0.175,0.323c-0.047,0.111-0.079,0.228-0.105,0.349c-0.026,0.121-0.037,0.249-0.037,0.365
				c0,0.614,0.312,1.213,0.836,1.556c0.1,0.069,0.211,0.128,0.323,0.175c0.111,0.048,0.227,0.08,0.349,0.106
				c0.122,0.026,0.243,0.032,0.365,0.037c0.117,0,0.244-0.011,0.366-0.037c0.122-0.026,0.238-0.058,0.349-0.106
				c0.112-0.048,0.223-0.106,0.323-0.175c0.105-0.063,0.196-0.142,0.286-0.232c0.349-0.35,0.545-0.832,0.55-1.324
				c-0.005-0.492-0.201-0.973-0.55-1.323C703.581,126.4,703.481,126.321,703.38,126.252z M695.886,118.758
				c-0.101-0.069-0.207-0.122-0.322-0.175c-0.117-0.042-0.228-0.079-0.35-0.106c-0.116-0.021-0.244-0.032-0.365-0.037
				c-0.492,0.005-0.974,0.202-1.323,0.551c-0.09,0.09-0.164,0.185-0.233,0.285c-0.069,0.101-0.127,0.212-0.175,0.323
				c-0.047,0.111-0.079,0.228-0.105,0.349c-0.026,0.121-0.037,0.249-0.037,0.365c0,0.614,0.312,1.213,0.836,1.556
				c0.1,0.069,0.211,0.128,0.323,0.175c0.111,0.047,0.227,0.08,0.349,0.106c0.122,0.026,0.243,0.032,0.365,0.037
				c0.117,0,0.244-0.011,0.366-0.037c0.121-0.026,0.238-0.058,0.349-0.106c0.112-0.048,0.223-0.106,0.323-0.175
				c0.106-0.063,0.196-0.142,0.286-0.232c0.349-0.349,0.545-0.832,0.551-1.324c-0.005-0.492-0.201-0.973-0.551-1.323
				C696.088,118.907,695.987,118.827,695.886,118.758z M688.393,111.265c-0.101-0.069-0.207-0.122-0.323-0.175
				c-0.117-0.042-0.228-0.079-0.35-0.106c-0.116-0.021-0.243-0.032-0.365-0.037c-0.492,0.005-0.974,0.202-1.323,0.551
				c-0.09,0.09-0.164,0.185-0.233,0.285c-0.069,0.101-0.127,0.212-0.175,0.323c-0.047,0.111-0.079,0.228-0.105,0.349
				c-0.026,0.122-0.037,0.249-0.037,0.365c0,0.614,0.312,1.213,0.836,1.556c0.1,0.069,0.211,0.128,0.323,0.175
				c0.111,0.048,0.228,0.08,0.349,0.106c0.122,0.026,0.243,0.032,0.365,0.037c0.117,0,0.244-0.011,0.366-0.037
				c0.121-0.026,0.238-0.058,0.349-0.106c0.112-0.048,0.223-0.106,0.323-0.175c0.105-0.063,0.196-0.142,0.286-0.232
				c0.349-0.349,0.545-0.832,0.551-1.324c-0.005-0.492-0.201-0.973-0.551-1.323C688.594,111.413,688.494,111.333,688.393,111.265z
				 M733.355,141.239c-0.101-0.069-0.207-0.122-0.323-0.175c-0.117-0.042-0.228-0.079-0.35-0.106
				c-0.116-0.021-0.244-0.032-0.365-0.037c-0.492,0.005-0.974,0.202-1.323,0.551c-0.09,0.09-0.164,0.185-0.233,0.285
				c-0.069,0.101-0.127,0.212-0.175,0.323c-0.047,0.111-0.079,0.228-0.105,0.349c-0.026,0.122-0.037,0.249-0.037,0.365
				c0,0.614,0.312,1.213,0.836,1.556c0.1,0.069,0.211,0.128,0.323,0.175c0.111,0.048,0.227,0.08,0.349,0.106
				c0.122,0.026,0.243,0.032,0.365,0.037c0.117,0,0.243-0.011,0.365-0.037c0.122-0.026,0.238-0.058,0.349-0.106
				c0.112-0.047,0.223-0.106,0.323-0.175c0.105-0.063,0.196-0.142,0.286-0.232c0.349-0.349,0.545-0.832,0.55-1.324
				c-0.005-0.492-0.201-0.973-0.55-1.323C733.556,141.387,733.456,141.308,733.355,141.239z M725.861,133.745
				c-0.101-0.069-0.207-0.122-0.323-0.175c-0.117-0.042-0.228-0.079-0.35-0.106c-0.116-0.021-0.244-0.031-0.365-0.037
				c-0.492,0.005-0.974,0.202-1.323,0.551c-0.09,0.09-0.164,0.185-0.233,0.285c-0.069,0.101-0.127,0.212-0.175,0.323
				c-0.047,0.111-0.079,0.228-0.105,0.349c-0.026,0.121-0.037,0.249-0.037,0.365c0,0.614,0.312,1.213,0.836,1.556
				c0.1,0.069,0.211,0.128,0.323,0.175c0.111,0.048,0.227,0.08,0.349,0.106c0.122,0.026,0.243,0.031,0.365,0.037
				c0.117,0,0.243-0.011,0.365-0.037c0.121-0.026,0.238-0.058,0.349-0.106c0.112-0.048,0.223-0.106,0.323-0.175
				c0.105-0.063,0.196-0.142,0.286-0.232c0.349-0.349,0.545-0.832,0.551-1.324c-0.005-0.492-0.201-0.973-0.551-1.323
				C726.062,133.894,725.962,133.814,725.861,133.745z M718.367,126.252c-0.101-0.069-0.207-0.122-0.323-0.175
				c-0.117-0.042-0.228-0.079-0.35-0.106c-0.116-0.021-0.243-0.032-0.365-0.037c-0.492,0.005-0.974,0.202-1.323,0.551
				c-0.09,0.09-0.164,0.185-0.233,0.285c-0.069,0.101-0.127,0.212-0.175,0.323c-0.047,0.111-0.079,0.228-0.105,0.349
				c-0.026,0.121-0.037,0.249-0.037,0.365c0,0.614,0.312,1.213,0.836,1.556c0.1,0.069,0.211,0.128,0.323,0.175
				c0.111,0.048,0.227,0.08,0.349,0.106c0.122,0.026,0.244,0.032,0.366,0.037c0.117,0,0.243-0.011,0.365-0.037
				c0.122-0.026,0.238-0.058,0.349-0.106c0.112-0.048,0.223-0.106,0.323-0.175c0.106-0.063,0.196-0.142,0.286-0.232
				c0.349-0.35,0.545-0.832,0.551-1.324c-0.005-0.492-0.201-0.973-0.551-1.323C718.568,126.4,718.468,126.321,718.367,126.252z
				 M710.874,118.758c-0.101-0.069-0.207-0.122-0.323-0.175c-0.117-0.042-0.228-0.079-0.35-0.106
				c-0.116-0.021-0.244-0.032-0.365-0.037c-0.492,0.005-0.974,0.202-1.323,0.551c-0.09,0.09-0.164,0.185-0.233,0.285
				c-0.069,0.101-0.127,0.212-0.175,0.323c-0.047,0.111-0.079,0.228-0.106,0.349c-0.026,0.121-0.037,0.249-0.037,0.365
				c0,0.614,0.312,1.213,0.836,1.556c0.1,0.069,0.211,0.128,0.323,0.175c0.111,0.047,0.227,0.08,0.349,0.106
				c0.122,0.026,0.243,0.032,0.365,0.037c0.117,0,0.243-0.011,0.365-0.037c0.122-0.026,0.238-0.058,0.349-0.106
				c0.112-0.048,0.223-0.106,0.323-0.175c0.105-0.063,0.196-0.142,0.286-0.232c0.349-0.349,0.545-0.832,0.55-1.324
				c-0.005-0.492-0.201-0.973-0.55-1.323C711.075,118.907,710.975,118.827,710.874,118.758z M703.38,111.265
				c-0.101-0.069-0.207-0.122-0.323-0.175c-0.117-0.042-0.228-0.079-0.35-0.106c-0.116-0.021-0.244-0.032-0.365-0.037
				c-0.492,0.005-0.974,0.202-1.323,0.551c-0.09,0.09-0.164,0.185-0.233,0.285c-0.069,0.101-0.127,0.212-0.175,0.323
				c-0.047,0.111-0.079,0.228-0.105,0.349c-0.026,0.122-0.037,0.249-0.037,0.365c0,0.614,0.312,1.213,0.836,1.556
				c0.1,0.069,0.211,0.128,0.323,0.175c0.111,0.048,0.227,0.08,0.349,0.106c0.122,0.026,0.243,0.032,0.365,0.037
				c0.117,0,0.244-0.011,0.366-0.037c0.122-0.026,0.238-0.058,0.349-0.106c0.112-0.048,0.223-0.106,0.323-0.175
				c0.105-0.063,0.196-0.142,0.286-0.232c0.349-0.349,0.545-0.832,0.55-1.324c-0.005-0.492-0.201-0.973-0.55-1.323
				C703.581,111.413,703.481,111.333,703.38,111.265z M695.886,103.771c-0.101-0.069-0.207-0.122-0.322-0.175
				c-0.117-0.042-0.228-0.079-0.35-0.106c-0.116-0.021-0.244-0.032-0.365-0.037c-0.492,0.005-0.974,0.202-1.323,0.551
				c-0.09,0.09-0.164,0.185-0.233,0.285c-0.069,0.101-0.127,0.212-0.175,0.323c-0.047,0.111-0.079,0.228-0.105,0.349
				c-0.026,0.121-0.037,0.249-0.037,0.365c0,0.614,0.312,1.213,0.836,1.556c0.1,0.069,0.211,0.128,0.323,0.175
				c0.111,0.048,0.227,0.08,0.349,0.106c0.122,0.026,0.243,0.032,0.365,0.037c0.117,0,0.244-0.011,0.366-0.037
				c0.121-0.026,0.238-0.058,0.349-0.106c0.112-0.048,0.223-0.106,0.323-0.175c0.106-0.063,0.196-0.142,0.286-0.232
				c0.349-0.349,0.545-0.832,0.551-1.324c-0.005-0.492-0.201-0.973-0.551-1.323C696.088,103.919,695.987,103.84,695.886,103.771z
				 M740.848,133.745c-0.101-0.069-0.207-0.122-0.323-0.175c-0.117-0.042-0.228-0.079-0.35-0.106
				c-0.116-0.021-0.244-0.031-0.365-0.037c-0.492,0.005-0.974,0.202-1.323,0.551c-0.09,0.09-0.164,0.185-0.233,0.285
				c-0.069,0.101-0.127,0.212-0.175,0.323c-0.047,0.111-0.079,0.228-0.105,0.349c-0.026,0.121-0.037,0.249-0.037,0.365
				c0,0.614,0.312,1.213,0.836,1.556c0.1,0.069,0.211,0.128,0.323,0.175c0.111,0.048,0.227,0.08,0.349,0.106
				c0.122,0.026,0.244,0.031,0.365,0.037c0.117,0,0.243-0.011,0.365-0.037c0.122-0.026,0.238-0.058,0.349-0.106
				c0.112-0.048,0.223-0.106,0.323-0.175c0.105-0.063,0.196-0.142,0.286-0.232c0.349-0.349,0.545-0.832,0.55-1.324
				c-0.005-0.492-0.201-0.973-0.55-1.323C741.049,133.894,740.949,133.814,740.848,133.745z M733.355,126.252
				c-0.101-0.069-0.207-0.122-0.323-0.175c-0.117-0.042-0.228-0.079-0.35-0.106c-0.116-0.021-0.244-0.032-0.365-0.037
				c-0.492,0.005-0.974,0.202-1.323,0.551c-0.09,0.09-0.164,0.185-0.233,0.285c-0.069,0.101-0.127,0.212-0.175,0.323
				c-0.047,0.111-0.079,0.228-0.105,0.349c-0.026,0.121-0.037,0.249-0.037,0.365c0,0.614,0.312,1.213,0.836,1.556
				c0.1,0.069,0.211,0.128,0.323,0.175c0.111,0.048,0.227,0.08,0.349,0.106c0.122,0.026,0.243,0.032,0.365,0.037
				c0.117,0,0.243-0.011,0.365-0.037c0.122-0.026,0.238-0.058,0.349-0.106c0.112-0.048,0.223-0.106,0.323-0.175
				c0.105-0.063,0.196-0.142,0.286-0.232c0.349-0.35,0.545-0.832,0.55-1.324c-0.005-0.492-0.201-0.973-0.55-1.323
				C733.556,126.4,733.456,126.321,733.355,126.252z M725.861,118.758c-0.101-0.069-0.207-0.122-0.323-0.175
				c-0.117-0.042-0.228-0.079-0.35-0.106c-0.116-0.021-0.244-0.032-0.365-0.037c-0.492,0.005-0.974,0.202-1.323,0.551
				c-0.09,0.09-0.164,0.185-0.233,0.285c-0.069,0.101-0.127,0.212-0.175,0.323c-0.047,0.111-0.079,0.228-0.105,0.349
				c-0.026,0.121-0.037,0.249-0.037,0.365c0,0.614,0.312,1.213,0.836,1.556c0.1,0.069,0.211,0.128,0.323,0.175
				c0.111,0.047,0.227,0.08,0.349,0.106c0.122,0.026,0.243,0.032,0.365,0.037c0.117,0,0.243-0.011,0.365-0.037
				c0.121-0.026,0.238-0.058,0.349-0.106c0.112-0.048,0.223-0.106,0.323-0.175c0.105-0.063,0.196-0.142,0.286-0.232
				c0.349-0.349,0.545-0.832,0.551-1.324c-0.005-0.492-0.201-0.973-0.551-1.323C726.062,118.907,725.962,118.827,725.861,118.758z
				 M718.367,111.265c-0.101-0.069-0.207-0.122-0.323-0.175c-0.117-0.042-0.228-0.079-0.35-0.106
				c-0.116-0.021-0.243-0.032-0.365-0.037c-0.492,0.005-0.974,0.202-1.323,0.551c-0.09,0.09-0.164,0.185-0.233,0.285
				c-0.069,0.101-0.127,0.212-0.175,0.323c-0.047,0.111-0.079,0.228-0.105,0.349c-0.026,0.122-0.037,0.249-0.037,0.365
				c0,0.614,0.312,1.213,0.836,1.556c0.1,0.069,0.211,0.128,0.323,0.175c0.111,0.048,0.227,0.08,0.349,0.106
				c0.122,0.026,0.244,0.032,0.366,0.037c0.117,0,0.243-0.011,0.365-0.037c0.122-0.026,0.238-0.058,0.349-0.106
				c0.112-0.048,0.223-0.106,0.323-0.175c0.106-0.063,0.196-0.142,0.286-0.232c0.349-0.349,0.545-0.832,0.551-1.324
				c-0.005-0.492-0.201-0.973-0.551-1.323C718.568,111.413,718.468,111.333,718.367,111.265z M710.874,103.771
				c-0.101-0.069-0.207-0.122-0.323-0.175c-0.117-0.042-0.228-0.079-0.35-0.106c-0.116-0.021-0.244-0.032-0.365-0.037
				c-0.492,0.005-0.974,0.202-1.323,0.551c-0.09,0.09-0.164,0.185-0.233,0.285c-0.069,0.101-0.127,0.212-0.175,0.323
				c-0.047,0.111-0.079,0.228-0.106,0.349c-0.026,0.121-0.037,0.249-0.037,0.365c0,0.614,0.312,1.213,0.836,1.556
				c0.1,0.069,0.211,0.128,0.323,0.175c0.111,0.048,0.227,0.08,0.349,0.106c0.122,0.026,0.243,0.032,0.365,0.037
				c0.117,0,0.243-0.011,0.365-0.037c0.122-0.026,0.238-0.058,0.349-0.106c0.112-0.048,0.223-0.106,0.323-0.175
				c0.105-0.063,0.196-0.142,0.286-0.232c0.349-0.349,0.545-0.832,0.55-1.324c-0.005-0.492-0.201-0.973-0.55-1.323
				C711.075,103.919,710.975,103.84,710.874,103.771z M703.38,96.277c-0.101-0.069-0.207-0.122-0.323-0.175
				c-0.117-0.042-0.228-0.079-0.35-0.106c-0.116-0.021-0.244-0.031-0.365-0.037c-0.492,0.005-0.974,0.202-1.323,0.551
				c-0.09,0.09-0.164,0.185-0.233,0.285c-0.069,0.101-0.127,0.212-0.175,0.323c-0.047,0.111-0.079,0.228-0.105,0.349
				c-0.026,0.121-0.037,0.249-0.037,0.365c0,0.614,0.312,1.213,0.836,1.556c0.1,0.069,0.211,0.128,0.323,0.175
				c0.111,0.048,0.227,0.08,0.349,0.106c0.122,0.026,0.243,0.031,0.365,0.037c0.117,0,0.244-0.011,0.366-0.037
				c0.122-0.026,0.238-0.059,0.349-0.106c0.112-0.048,0.223-0.106,0.323-0.175c0.105-0.063,0.196-0.142,0.286-0.232
				c0.349-0.349,0.545-0.832,0.55-1.324c-0.005-0.492-0.201-0.973-0.55-1.323C703.581,96.426,703.481,96.346,703.38,96.277z"/>
		</g>
		<path style="clip-path:url(#SVGID_00000024719356270642474980000001846895642473077647_);fill:#F8F9F9;" d="M791.963,151.88
			c-32.866-9.164-69.621-3.246-97.951,15.77c-28.329,19.017-47.726,50.793-51.692,84.681c-2.185,18.674,0.073,37.795-3.667,56.221
			c-3.74,18.426-15.862,37.207-34.399,40.352c-26.663,4.523-46.171-39.588-73.024-42.798c-32.269-3.858-57.566,43.868-85.694,60.147
			c-50.136,29.016-116.791-32.899-166.554-3.249c-27.36,16.302-25.546,90.307-55.001,102.417
			c-21.296,8.755-68.633-11.094-91.407-7.697c-22.774,3.397-45.712,29.227-50.031,51.844h714.212L791.963,151.88z"/>
		<path style="clip-path:url(#SVGID_00000024719356270642474980000001846895642473077647_);fill:#FFFFFF;" d="M220.614,526.336
			c2.43-28.394,35.009-44.088,63.446-45.943c28.437-1.855,58.167,4.092,84.775-6.112c32.746-12.558,53.668-47.092,86.994-58.019
			c46.323-15.188,103.965,19.15,142.777-10.348c22.19-16.865,29.857-50.257,55.479-61.226c19.638-8.407,43.169-0.282,63.177-7.766
			c15.649-5.853,26.398-20.23,34.701-34.728c8.303-14.498,15.314-30.153,27.266-41.827c11.952-11.675,30.767-18.456,45.638-10.842
			v263.32L220.614,526.336z"/>
		<path style="clip-path:url(#SVGID_00000024719356270642474980000001846895642473077647_);fill:#F8F9F9;" d="M-52.146,425.585
			c6.369,9.394,23.592,15.071,34.122,18.17c11.735,3.453,25.502,0.485,34.472-7.899c9.004-8.417,13.278-21.157,22.908-28.85
			c14.158-11.312,34.526-8.181,52.411-5.259c17.885,2.922,39.101,3.919,51.026-9.727c10.536-12.057,9.582-31.444,20.895-42.775
			c17.368-17.394,50.132-4.214,69.598-19.224c12.163-9.379,14.752-26.348,16.759-41.575c2.008-15.227,5.512-32.282,18.458-40.546
			c11.503-7.344,26.469-5.09,39.754-8.214c16.127-3.793,29.253-16.773,34.807-32.177c2.732-7.576,0.326-16.734,2.848-23.569
			c2.441-6.616,12.281-12.123,18.674-13.605c19.749-4.581,39.573,13.852,59.247,8.96c22.759-5.659,28.523-37.239,49.09-48.508
			c12.379-6.782,27.934-4.727,40.851,0.965c12.917,5.692,24.093,14.624,36.183,21.909c12.09,7.285,25.953,13.075,39.967,11.393
			c36.165-4.339,32.015-54.873,52.826-76.166c10.882-11.134,26.736-15.654,41.996-18.737c22.367-4.519,45.73-13.083,60.459-31.427
			c16.94-21.097,24.745-56.357,24.77-82.717h-817.21L-52.146,425.585z"/>
		<path style="clip-path:url(#SVGID_00000024719356270642474980000001846895642473077647_);fill:#FFFFFF;" d="M-22.225-1.26v280.227
			c12.667,15.356,37.156,13.516,55.146,4.996c17.99-8.521,33.648-22.215,52.868-27.398c24.182-6.521,50.08,1.462,74.827-2.397
			c42.855-6.682,71.938-46.008,94.904-82.803s48.455-77.363,90.054-89.642c54.618-16.122,119.054,22.84,167.893-6.448
			c19.519-11.705,33.01-32.971,54.492-40.488c24.083-8.428,50.207,2.931,75.708,3.79c30.447,1.024,60.121-15.283,77.86-39.836
			H-22.225z"/>
		<g style="clip-path:url(#SVGID_00000024719356270642474980000001846895642473077647_);">
			<path style="fill:#FED49C;" d="M168.509,483.465c-0.148,0-0.296-0.038-0.428-0.115l-29.096-16.799
				c-0.265-0.153-0.428-0.435-0.428-0.741v-33.598c0-0.306,0.163-0.588,0.428-0.741c0.266-0.153,0.591-0.153,0.857,0l29.096,16.799
				c0.265,0.153,0.428,0.435,0.428,0.741v33.598c0,0.306-0.163,0.588-0.428,0.741C168.804,483.427,168.657,483.465,168.509,483.465z
				 M140.269,465.316l27.384,15.81v-31.621l-27.384-15.81V465.316z"/>
		</g>
		<g style="clip-path:url(#SVGID_00000024719356270642474980000001846895642473077647_);">
			<path style="fill:#FED49C;" d="M168.509,483.465c-0.148,0-0.296-0.038-0.428-0.115c-0.265-0.153-0.428-0.435-0.428-0.741v-33.598
				c0-0.306,0.163-0.588,0.428-0.741l29.097-16.799c0.266-0.153,0.591-0.153,0.857,0c0.265,0.153,0.428,0.436,0.428,0.741v33.598
				c0,0.306-0.163,0.588-0.428,0.741l-29.097,16.799C168.804,483.427,168.657,483.465,168.509,483.465z M169.365,449.505v31.621
				l27.385-15.81v-31.621L169.365,449.505z"/>
		</g>
		<g style="clip-path:url(#SVGID_00000024719356270642474980000001846895642473077647_);">
			<g>
				<path style="fill:#FED49C;" d="M168.509,449.867c-0.148,0-0.296-0.038-0.428-0.115l-29.096-16.799
					c-0.265-0.153-0.428-0.436-0.428-0.741c0-0.306,0.163-0.588,0.428-0.741l29.096-16.799c0.266-0.153,0.591-0.153,0.857,0
					l29.097,16.799c0.265,0.153,0.428,0.436,0.428,0.741c0,0.306-0.163,0.588-0.428,0.741l-29.097,16.799
					C168.804,449.829,168.657,449.867,168.509,449.867z M141.125,432.212l27.384,15.811l27.385-15.811l-27.385-15.81
					L141.125,432.212z"/>
			</g>
			<g>
				<path style="fill:#FED49C;" d="M729.387,259.825l-2.401-2.401l-2.401,2.401l-1.865-1.865l2.401-2.401l-2.401-2.401l1.865-1.865
					l2.401,2.401l2.401-2.401l1.865,1.865l-2.401,2.401l2.401,2.401L729.387,259.825z M731.251,275.093l-2.401-2.401l2.401-2.401
					l-1.865-1.865l-2.401,2.401l-2.401-2.401l-1.865,1.865l2.401,2.401l-2.401,2.401l1.865,1.865l2.401-2.401l2.401,2.401
					L731.251,275.093z M731.251,292.225l-2.401-2.401l2.401-2.401l-1.865-1.865l-2.401,2.401l-2.401-2.401l-1.865,1.865l2.401,2.401
					l-2.401,2.401l1.865,1.865l2.401-2.401l2.401,2.401L731.251,292.225z M731.251,206.563l-2.401-2.401l2.401-2.401l-1.865-1.865
					l-2.401,2.401l-2.401-2.401l-1.865,1.865l2.401,2.401l-2.401,2.401l1.865,1.865l2.401-2.401l2.401,2.401L731.251,206.563z
					 M731.251,240.828l-2.401-2.401l2.401-2.401l-1.865-1.865l-2.401,2.401l-2.401-2.401l-1.865,1.865l2.401,2.401l-2.401,2.401
					l1.865,1.865l2.401-2.401l2.401,2.401L731.251,240.828z M731.251,223.696l-2.401-2.401l2.401-2.401l-1.865-1.865l-2.401,2.401
					l-2.401-2.401l-1.865,1.865l2.401,2.401l-2.401,2.401l1.865,1.865l2.401-2.401l2.401,2.401L731.251,223.696z M729.387,345.487
					l1.865-1.865l-2.401-2.401l2.401-2.401l-1.865-1.865l-2.401,2.401l-2.401-2.401l-1.865,1.865l2.401,2.401l-2.401,2.401
					l1.865,1.865l2.401-2.401L729.387,345.487z M731.251,309.358l-2.401-2.401l2.401-2.401l-1.865-1.865l-2.401,2.401l-2.401-2.401
					l-1.865,1.865l2.401,2.401l-2.401,2.401l1.865,1.865l2.401-2.401l2.401,2.401L731.251,309.358z M731.251,326.49l-2.401-2.401
					l2.401-2.401l-1.865-1.865l-2.401,2.401l-2.401-2.401l-1.865,1.865l2.401,2.401l-2.401,2.401l1.865,1.865l2.401-2.401
					l2.401,2.401L731.251,326.49z M714.119,343.623l-2.401-2.401l2.401-2.401l-1.865-1.865l-2.401,2.401l-2.401-2.401l-1.865,1.865
					l2.401,2.401l-2.401,2.401l1.865,1.865l2.401-2.401l2.401,2.401L714.119,343.623z M714.119,240.828l-2.401-2.401l2.401-2.401
					l-1.865-1.865l-2.401,2.401l-2.401-2.401l-1.865,1.865l2.401,2.401l-2.401,2.401l1.865,1.865l2.401-2.401l2.401,2.401
					L714.119,240.828z M714.119,206.563l-2.401-2.401l2.401-2.401l-1.865-1.865l-2.401,2.401l-2.401-2.401l-1.865,1.865l2.401,2.401
					l-2.401,2.401l1.865,1.865l2.401-2.401l2.401,2.401L714.119,206.563z M714.119,223.696l-2.401-2.401l2.401-2.401l-1.865-1.865
					l-2.401,2.401l-2.401-2.401l-1.865,1.865l2.401,2.401l-2.401,2.401l1.865,1.865l2.401-2.401l2.401,2.401L714.119,223.696z
					 M714.119,275.093l-2.401-2.401l2.401-2.401l-1.865-1.865l-2.401,2.401l-2.401-2.401l-1.865,1.865l2.401,2.401l-2.401,2.401
					l1.865,1.865l2.401-2.401l2.401,2.401L714.119,275.093z M714.119,292.225l-2.401-2.401l2.401-2.401l-1.865-1.865l-2.401,2.401
					l-2.401-2.401l-1.865,1.865l2.401,2.401l-2.401,2.401l1.865,1.865l2.401-2.401l2.401,2.401L714.119,292.225z M714.119,309.358
					l-2.401-2.401l2.401-2.401l-1.865-1.865l-2.401,2.401l-2.401-2.401l-1.865,1.865l2.401,2.401l-2.401,2.401l1.865,1.865
					l2.401-2.401l2.401,2.401L714.119,309.358z M714.119,257.961l-2.401-2.401l2.401-2.401l-1.865-1.865l-2.401,2.401l-2.401-2.401
					l-1.865,1.865l2.401,2.401l-2.401,2.401l1.865,1.865l2.401-2.401l2.401,2.401L714.119,257.961z M714.119,326.49l-2.401-2.401
					l2.401-2.401l-1.865-1.865l-2.401,2.401l-2.401-2.401l-1.865,1.865l2.401,2.401l-2.401,2.401l1.865,1.865l2.401-2.401
					l2.401,2.401L714.119,326.49z"/>
			</g>
			<g>
				<path style="fill:#FFFFFF;" d="M583.49,247.197h-18.864l18.864-18.865V247.197z M567.04,246.197h15.45v-15.451L567.04,246.197z
					 M567.941,231.649h-18.864l18.864-18.864V231.649z M551.491,230.649h15.45v-15.45L551.491,230.649z M552.392,216.1h-18.864
					l18.864-18.864V216.1z M535.942,215.1h15.45v-15.45L535.942,215.1z M536.844,200.551h-18.865l18.865-18.864V200.551z
					 M520.393,199.551h15.451v-15.45L520.393,199.551z M521.295,185.003h-18.864l18.864-18.865V185.003z M504.845,184.003h15.45
					v-15.451L504.845,184.003z"/>
			</g>
			<path style="fill:#C8CDCD;" d="M63.699,372.832l-7.352,7.351l-8.972-8.972l-8.972,8.972l-7.352-7.351l8.972-8.972l-8.972-8.972
				l7.352-7.352l8.972,8.972l8.972-8.972l7.352,7.352l-8.972,8.972L63.699,372.832z M53.96,363.859l8.972-8.972l-6.584-6.584
				l-8.972,8.972l-8.972-8.972l-6.584,6.584l8.972,8.972l-8.972,8.972l6.584,6.584l8.972-8.972l8.972,8.972l6.584-6.584
				L53.96,363.859z M101.208,317.379l-8.972,8.972l8.972,8.972l-7.352,7.351l-8.972-8.972l-8.972,8.972l-7.351-7.351l8.972-8.972
				l-8.972-8.972l7.351-7.351l8.972,8.972l8.972-8.972L101.208,317.379z M91.469,326.351l8.972-8.972l-6.584-6.584l-8.972,8.972
				l-8.972-8.972l-6.584,6.584l8.972,8.972l-8.972,8.972l6.584,6.584l8.972-8.972l8.972,8.972l6.584-6.584L91.469,326.351z
				 M138.716,279.87l-8.972,8.972l8.972,8.972l-7.351,7.352l-8.972-8.972l-8.972,8.972l-7.352-7.352l8.972-8.972l-8.972-8.972
				l7.352-7.351l8.972,8.972l8.972-8.972L138.716,279.87z M131.365,304.398l6.584-6.584l-8.972-8.972l8.972-8.972l-6.584-6.584
				l-8.972,8.972l-8.972-8.972l-6.584,6.584l8.972,8.972l-8.972,8.972l6.584,6.584l8.972-8.972L131.365,304.398z"/>
			<g>
				<circle style="fill:#FED49C;" cx="58.636" cy="76.259" r="10.051"/>
			</g>
			<g>
				<path style="fill:#FED49C;" d="M666.402,18.227c-7.433,7.433-19.485,7.433-26.918,0c-7.433-7.433-7.433-19.485,0-26.918
					c7.433-7.433,19.485-7.433,26.918,0C673.835-1.257,673.835,10.794,666.402,18.227z"/>
			</g>
			<g>
				<circle style="fill:#FED49C;" cx="277.305" cy="490.28" r="19.034"/>
			</g>
			<g>
				<circle style="fill:#FFFFFF;" cx="62.278" cy="449.674" r="28.101"/>
			</g>
			<g>
				<path style="fill:#FED49C;" d="M197.585,22.338c-12.419,0-22.522-10.104-22.522-22.522c0-12.418,10.104-22.522,22.522-22.522
					c12.418,0,22.522,10.104,22.522,22.522C220.107,12.235,210.003,22.338,197.585,22.338z M197.585-16.706
					c-9.11,0-16.522,7.411-16.522,16.522c0,9.11,7.412,16.522,16.522,16.522c9.11,0,16.522-7.412,16.522-16.522
					C214.107-9.295,206.695-16.706,197.585-16.706z M143.32,22.338c-12.419,0-22.522-10.104-22.522-22.522
					c0-12.418,10.104-22.522,22.522-22.522s22.522,10.104,22.522,22.522C165.842,12.235,155.739,22.338,143.32,22.338z
					 M143.32-16.706c-9.11,0-16.522,7.411-16.522,16.522c0,9.11,7.412,16.522,16.522,16.522c9.11,0,16.522-7.412,16.522-16.522
					C159.842-9.295,152.43-16.706,143.32-16.706z M89.055,22.338c-12.419,0-22.522-10.104-22.522-22.522
					c0-12.418,10.104-22.522,22.522-22.522c12.419,0,22.522,10.104,22.522,22.522C111.577,12.235,101.473,22.338,89.055,22.338z
					 M89.055-16.706c-9.11,0-16.522,7.411-16.522,16.522c0,9.11,7.412,16.522,16.522,16.522c9.11,0,16.522-7.412,16.522-16.522
					C105.577-9.295,98.165-16.706,89.055-16.706z M34.789,22.338c-12.419,0-22.522-10.104-22.522-22.522
					c0-12.418,10.104-22.522,22.522-22.522c12.419,0,22.522,10.104,22.522,22.522C57.311,12.235,47.208,22.338,34.789,22.338z
					 M34.789-16.706c-9.11,0-16.522,7.411-16.522,16.522c0,9.11,7.412,16.522,16.522,16.522c9.11,0,16.522-7.412,16.522-16.522
					C51.311-9.295,43.899-16.706,34.789-16.706z"/>
			</g>
		</g>
		<g style="clip-path:url(#SVGID_00000024719356270642474980000001846895642473077647_);">
			<path style="fill:none;" d="M301.155,519.607c52.315-36.536,171.254,56.234,242.058,9.663
				c70.804-46.571,157.746-165.427,200.552-180.483c42.807-15.056,184.916,92.352,184.916,92.352"/>
			<path style="fill:none;stroke:#ABB1B1;stroke-width:0.0185;stroke-miterlimit:10;" d="M303.737,521.424
				c24.68-17.236,67.215-8.448,110.286,3.487c44.822,12.434,94.584,29.09,129.897,6.048c21.565-14,41.889-39.014,65.261-61.619
				c17.92-17.198,35.593-30.909,52.083-47.536c22.207-22.391,41.051-46.905,58.392-59.653c7.731-5.683,14.779-9.273,20.997-10.75
				c17.954-4.264,52.514,12.393,87.579,31.049c49.57,26.35,98.076,58.237,100.319,59.137"/>
			<path style="fill:none;stroke:#ABB1B1;stroke-width:0.037;stroke-miterlimit:10;" d="M306.319,523.242
				c23.731-16.573,67.182-12.133,109.208-0.845c43.71,11.768,94.539,32.498,129.101,10.25c21.259-13.685,38.48-42.506,62.163-64.676
				c18.295-17.126,36.354-26.167,52.885-42.36c22.105-21.653,39.136-49.852,56.71-62.367c7.731-5.506,14.807-8.426,21.154-9.23
				c18.119-2.296,52.482,16.227,87.938,34.068c50.161,25.197,98.457,52.15,102.942,53.95"/>
			<path style="fill:none;stroke:#ABB1B1;stroke-width:0.0556;stroke-miterlimit:10;" d="M308.901,525.059
				c22.781-15.91,67.148-15.817,108.129-5.176c42.597,11.102,94.522,35.949,128.304,14.452
				c20.969-13.344,35.12-45.951,59.065-67.734c18.707-17.018,37.114-21.426,53.688-37.183c22-20.916,37.217-52.8,55.028-65.08
				c7.73-5.33,14.819-7.586,21.312-7.711c18.241-0.353,52.449,20.062,88.297,37.088c50.753,24.045,98.838,46.063,105.565,48.763"/>
			<path style="fill:none;stroke:#ABB1B1;stroke-width:0.0741;stroke-miterlimit:10;" d="M311.483,526.877
				c21.832-15.247,67.115-19.501,107.051-9.507c41.485,10.436,94.508,39.402,127.508,18.654
				c20.68-13.002,31.764-49.391,55.967-70.791c19.123-16.908,37.87-16.685,54.49-32.006c21.891-20.181,35.295-55.75,53.345-67.794
				c7.727-5.156,14.819-6.756,21.469-6.192c18.329,1.555,52.416,23.896,88.656,40.108c51.344,22.892,99.219,39.977,108.188,43.577"
				/>
			<path style="fill:none;stroke:#ABB1B1;stroke-width:0.0926;stroke-miterlimit:10;" d="M314.065,528.694
				c20.883-14.585,67.081-23.185,105.972-13.838c40.372,9.77,94.494,42.857,126.712,22.856c20.392-12.66,28.414-52.829,52.87-73.849
				c19.541-16.796,38.624-11.946,55.292-26.83c21.778-19.447,33.369-58.703,51.663-70.508c7.723-4.983,14.81-5.939,21.627-4.672
				c18.398,3.42,52.383,27.73,89.015,43.128c51.935,21.739,99.599,33.89,110.811,38.39"/>
			<path style="fill:none;stroke:#ABB1B1;stroke-width:0.1111;stroke-miterlimit:10;" d="M316.647,530.512
				c19.934-13.922,67.048-26.869,104.894-18.169c39.26,9.104,94.483,46.314,125.915,27.058
				c20.104-12.316,25.067-56.262,49.772-76.906c19.963-16.681,39.375-7.207,56.095-21.653c21.661-18.716,31.44-61.658,49.98-73.221
				c7.717-4.813,14.798-5.138,21.784-3.153c18.459,5.244,52.35,31.565,89.374,46.148c52.527,20.587,99.98,27.804,113.434,33.203"/>
			<path style="fill:none;stroke:#ABB1B1;stroke-width:0.1296;stroke-miterlimit:10;" d="M319.229,532.329
				c18.985-13.259,67.014-30.554,103.815-22.5c38.147,8.437,94.474,49.773,125.119,31.26c19.818-11.972,21.725-59.693,46.674-79.963
				c20.388-16.564,40.123-2.469,56.897-16.476c21.54-17.987,29.508-64.616,48.298-75.935c7.709-4.643,14.788-4.349,21.942-1.634
				c18.523,7.031,52.318,35.399,89.733,49.167c53.118,19.434,100.361,21.717,116.058,28.017"/>
			<path style="fill:none;stroke:#ABB1B1;stroke-width:0.1481;stroke-miterlimit:10;" d="M321.811,534.147
				c18.035-12.596,66.981-34.238,102.736-26.832c37.035,7.771,94.467,53.235,124.322,35.462
				c19.533-11.627,18.386-63.119,43.576-83.021c20.815-16.445,40.869,2.267,57.699-11.3c21.414-17.261,27.572-67.578,46.616-78.648
				c7.699-4.476,14.781-3.572,22.099-0.114c18.598,8.787,52.285,39.233,90.092,52.187c53.71,18.282,100.742,15.63,118.681,22.83"/>
			<path style="fill:none;stroke:#ABB1B1;stroke-width:0.1667;stroke-miterlimit:10;" d="M324.393,535.964
				c17.086-11.933,66.948-37.922,101.658-31.163c35.922,7.105,94.461,56.699,123.526,39.664
				c19.249-11.281,15.051-66.542,40.479-86.078c21.245-16.323,41.611,7.001,58.501-6.123c21.284-16.538,25.633-70.543,44.934-81.362
				c7.688-4.31,14.78-2.804,22.257,1.405c18.688,10.521,52.252,43.068,90.451,55.207c54.301,17.129,101.123,9.544,121.304,17.643"/>
			<path style="fill:none;stroke:#ABB1B1;stroke-width:0.1852;stroke-miterlimit:10;" d="M326.976,537.782
				c16.137-11.27,66.914-41.606,100.579-35.494c34.81,6.439,94.458,60.165,122.729,43.866c18.966-10.934,11.72-69.962,37.381-89.136
				c21.679-16.198,42.35,11.733,59.304-0.947c21.15-15.818,23.691-73.512,43.251-84.075c7.676-4.146,14.786-2.043,22.414,2.924
				c18.794,12.24,52.219,46.902,90.81,58.227c54.893,15.976,101.503,3.457,123.927,12.457"/>
			<path style="fill:none;stroke:#ABB1B1;stroke-width:0.2037;stroke-miterlimit:10;" d="M329.558,539.6
				c15.188-10.607,66.881-45.29,99.501-39.825c33.698,5.773,94.457,63.635,121.933,48.069c18.684-10.585,8.391-73.377,34.283-92.193
				c22.114-16.07,43.086,16.463,60.106,4.23c21.012-15.102,21.746-76.484,41.569-86.789c7.663-3.984,14.799-1.288,22.572,4.444
				c18.916,13.948,52.186,50.736,91.169,61.247c55.484,14.824,101.884-2.63,126.55,7.27"/>
			<path style="fill:none;stroke:#ABB1B1;stroke-width:0.2222;stroke-miterlimit:10;" d="M332.14,541.417
				c14.238-9.944,66.857-49.038,98.422-44.156c32.595,5.041,94.459,67.107,121.137,52.271c18.403-10.235,5.066-76.789,31.186-95.25
				c22.552-15.939,43.819,21.19,60.909,9.407c20.87-14.39,19.798-79.461,39.886-89.503c7.648-3.823,14.818-0.535,22.729,5.963
				c19.053,15.65,52.154,54.57,91.528,64.267c56.076,13.671,102.265-8.716,129.173,2.084"/>
			<path style="fill:none;stroke:#ABB1B1;stroke-width:0.2407;stroke-miterlimit:10;" d="M334.722,543.235
				c13.289-9.281,66.823-52.725,97.344-48.487c31.482,4.372,94.463,70.583,120.34,56.473c18.124-9.883,1.743-80.198,28.088-98.308
				c22.992-15.806,44.549,25.914,61.711,14.583c20.723-13.682,17.848-82.443,38.204-92.216c7.633-3.664,14.844,0.216,22.887,7.483
				c19.204,17.349,52.121,58.405,91.887,67.286c56.667,12.518,102.646-14.803,131.796-3.103"/>
			<path style="fill:none;stroke:#ABB1B1;stroke-width:0.2593;stroke-miterlimit:10;" d="M337.304,545.052
				c12.34-8.618,66.789-56.412,96.265-52.818c30.369,3.703,94.469,74.063,119.544,60.675c17.847-9.529-1.577-83.602,24.99-101.365
				c23.434-15.668,45.275,30.634,62.513,19.76c20.573-12.978,15.895-85.43,36.522-94.93c7.616-3.508,14.874,0.967,23.044,9.002
				c19.367,19.047,52.088,62.239,92.246,70.306c57.258,11.366,103.027-20.889,134.42-8.29"/>
			<path style="fill:none;stroke:#ABB1B1;stroke-width:0.2778;stroke-miterlimit:10;" d="M339.886,546.87
				c11.391-7.955,66.754-60.099,95.186-57.15c29.255,3.034,94.478,77.547,118.747,64.877c17.571-9.172-4.896-87.003,21.893-104.423
				c23.879-15.528,45.999,35.351,63.315,24.937c20.419-12.28,13.94-88.421,34.839-97.643c7.599-3.353,14.909,1.716,23.202,10.521
				c19.541,20.746,52.055,66.073,92.605,73.326c57.85,10.213,103.407-26.976,137.043-13.476"/>
			<path style="fill:none;stroke:#ABB1B1;stroke-width:0.2963;stroke-miterlimit:10;" d="M342.468,548.687
				c10.441-7.292,66.72-63.784,94.108-61.481c28.142,2.367,94.489,81.034,117.951,69.079c17.296-8.813-8.212-90.401,18.795-107.48
				c24.325-15.384,46.72,40.063,64.118,30.113c20.261-11.587,11.982-91.418,33.157-100.357c7.58-3.2,14.948,2.467,23.36,12.041
				c19.722,22.448,52.022,69.907,92.964,76.346c58.441,9.061,103.788-33.063,139.666-18.663"/>
			<path style="fill:none;stroke:#ABB1B1;stroke-width:0.3148;stroke-miterlimit:10;" d="M345.05,550.505
				c9.492-6.629,66.685-67.469,93.029-65.812c27.028,1.7,94.503,84.527,117.155,73.281c17.023-8.451-11.526-93.794,15.697-110.538
				c24.773-15.237,47.438,44.77,64.92,35.29c20.1-10.899,10.023-94.421,31.475-103.07c7.562-3.049,14.99,3.217,23.517,13.56
				c19.912,24.151,51.989,73.742,93.323,79.366c59.033,7.908,104.169-39.149,142.289-23.849"/>
			<path style="fill:none;stroke:#ABB1B1;stroke-width:0.3333;stroke-miterlimit:10;" d="M347.632,552.323
				c8.543-5.966,66.65-71.153,91.951-70.143c25.913,1.034,94.52,88.024,116.358,77.483c16.753-8.086-14.838-97.185,12.599-113.595
				c25.223-15.086,48.153,49.471,65.723,40.466c19.936-10.218,8.062-97.43,29.792-105.784c7.542-2.9,15.035,3.969,23.675,15.079
				c20.107,25.857,51.957,77.576,93.682,82.385c59.624,6.756,104.55-45.236,144.912-29.036"/>
			<path style="fill:none;stroke:#ABB1B1;stroke-width:0.3519;stroke-miterlimit:10;" d="M350.214,554.14
				c7.594-5.303,66.614-74.836,90.872-74.474c24.799,0.37,94.539,91.526,115.562,81.685c16.484-7.716-18.15-100.572,9.502-116.653
				c25.674-14.931,48.866,54.167,66.525,45.643c19.769-9.543,6.099-100.444,28.11-108.498c7.522-2.752,15.081,4.721,23.832,16.599
				c20.308,27.565,51.924,81.41,94.041,85.405c60.216,5.603,104.93-51.323,147.535-34.223"/>
			<path style="fill:none;stroke:#ABB1B1;stroke-width:0.3704;stroke-miterlimit:10;" d="M352.796,555.958
				c6.645-4.641,66.579-78.518,89.794-78.805c23.685-0.294,94.561,95.035,114.766,85.888c16.218-7.342-21.459-103.955,6.404-119.71
				c26.127-14.773,49.577,58.857,67.327,50.82c19.601-8.875,4.135-103.465,26.428-111.211c7.502-2.607,15.13,5.474,23.99,18.118
				c20.513,29.277,51.891,85.245,94.4,88.425c60.807,4.45,105.311-57.409,150.159-39.409"/>
			<path style="fill:none;stroke:#ABB1B1;stroke-width:0.3889;stroke-miterlimit:10;" d="M355.378,557.775
				c5.695-3.978,66.543-82.198,88.715-83.137c22.57-0.956,94.586,98.55,113.969,90.09c15.953-6.963-24.768-107.335,3.306-122.767
				c26.581-14.612,50.286,63.539,68.129,55.996c19.431-8.214,2.171-106.493,24.745-113.925c7.482-2.463,15.181,6.228,24.147,19.638
				c20.721,30.991,51.858,89.079,94.759,91.445c61.398,3.298,105.692-63.496,152.782-44.596"/>
			<path style="fill:none;stroke:#ABB1B1;stroke-width:0.4074;stroke-miterlimit:10;" d="M357.96,559.593
				c4.746-3.315,66.508-85.876,87.637-87.468c21.456-1.616,94.613,102.071,113.173,94.292
				c15.691-6.577-28.076-110.711,0.208-125.825c27.037-14.447,50.994,68.214,68.932,61.173c19.26-7.56,0.205-109.527,23.063-116.638
				c7.461-2.321,15.233,6.983,24.305,21.157c20.933,32.707,51.825,92.913,95.118,94.465c61.99,2.145,106.073-69.583,155.405-49.783"
				/>
			<path style="fill:none;stroke:#ABB1B1;stroke-width:0.4259;stroke-miterlimit:10;" d="M360.542,561.41
				c3.797-2.652,66.473-89.553,86.558-91.799c20.342-2.274,94.642,105.6,112.377,98.494c15.431-6.184-31.383-114.085-2.889-128.882
				c27.493-14.278,51.701,72.881,69.734,66.35c19.088-6.913-1.761-112.568,21.381-119.352c7.441-2.181,15.286,7.739,24.462,22.676
				c21.148,34.426,51.792,96.747,95.477,97.485c62.581,0.993,106.454-75.669,158.028-54.969"/>
			<path style="fill:none;stroke:#ABB1B1;stroke-width:0.4444;stroke-miterlimit:10;" d="M363.124,563.228
				c2.848-1.989,66.439-93.228,85.479-96.13c19.229-2.931,94.673,109.138,111.58,102.696c15.174-5.782-34.69-117.455-5.987-131.94
				c27.951-14.105,52.407,77.539,70.537,71.526c18.917-6.274-3.728-115.616,19.698-122.065c7.421-2.043,15.34,8.495,24.62,24.196
				c21.365,36.147,51.76,100.582,95.836,100.504c63.173-0.16,106.834-81.756,160.651-60.156"/>
			<path style="fill:none;stroke:#ABB1B1;stroke-width:0.463;stroke-miterlimit:10;" d="M365.706,565.045
				c1.898-1.326,66.413-96.869,84.401-100.461c18.123-3.553,94.706,112.684,110.784,106.898
				c14.92-5.369-37.996-120.822-9.085-134.997c28.409-13.929,53.113,82.189,71.339,76.703
				c18.747-5.643-5.695-118.671,18.016-124.779c7.401-1.907,15.395,9.252,24.777,25.715c21.583,37.87,51.727,104.416,96.195,103.524
				c63.764-1.313,107.215-87.842,163.274-65.343"/>
			<path style="fill:none;stroke:#ABB1B1;stroke-width:0.4815;stroke-miterlimit:10;" d="M368.288,566.863
				c0.949-0.663,66.379-100.553,83.322-104.792c17.011-4.22,94.74,116.24,109.987,111.1c14.668-4.944-41.281-124.141-12.182-138.055
				c28.888-13.705,53.821,86.83,72.141,81.88c18.579-5.02-7.661-121.733,16.334-127.493c7.381-1.772,15.478,9.995,24.935,27.234
				c21.866,39.56,51.694,108.25,96.554,106.544c64.356-2.465,107.596-93.929,165.897-70.529"/>
			<path style="fill:none;stroke:#ABB1B1;stroke-width:0.5;stroke-miterlimit:10;" d="M370.871,568.68
				c0,0,66.346-104.238,82.244-109.123c15.898-4.886,94.773,119.807,109.191,115.302c14.418-4.504-44.608-127.547-15.28-141.112
				c29.327-13.565,54.53,91.46,72.944,87.056c18.414-4.404-9.627-124.803,14.651-130.206
				c24.278-5.404,57.058,141.935,122.005,138.318c64.947-3.618,107.977-100.016,168.521-75.716"/>
		</g>
		<g style="clip-path:url(#SVGID_00000024719356270642474980000001846895642473077647_);">
			<path style="fill:none;stroke:#ABB1B1;stroke-width:0.5;stroke-miterlimit:10;" d="M535.316-90.962
				c0,0,18.268,146.24-42.147,165.737c-86.237,27.829-156.388-143.299-206.25-133.191c-39.641,8.036-1.514,74.967-47.835,100.329
				c-46.321,25.362-89.323-12.932-118.861-3.715c-29.538,9.217,43.706,178.886,4.716,190.382
				C85.948,240.075,16.207,3.45-89.296,16.53c-105.502,13.08-165.008,175.023-266.417,142.094"/>
			<path style="fill:none;stroke:#ABB1B1;stroke-width:0.4828;stroke-miterlimit:10;" d="M539.423-88.468
				c-1.258,1.011,14.662,141.882-45.479,160.29C416.212,95.677,350.971-38.161,302.375-54.884
				c-4.937-1.699-9.669-2.256-14.241-1.245c-38.971,8.568-2.442,74.432-47.674,99.758c-23.376,13.181-46.007,9.877-66.756,4.481
				c-19.338-5.064-36.696-11.49-50.995-7.155c-30.459,9.234,38.612,173.704-0.111,186.452
				C96.571,235.975,58.783,144.961,7.26,82.177c-28.232-34.173-61.047-59.98-98.318-56.022
				c-105.168,11.391-166.895,164.953-264.807,133.16"/>
			<path style="fill:none;stroke:#ABB1B1;stroke-width:0.4655;stroke-miterlimit:10;" d="M543.53-85.975
				c-2.515,2.023,11.056,137.525-48.811,154.843C417.461,91.341,351.992-37.945,303.379-52.935
				c-4.88-1.505-9.529-1.986-14.028-0.906c-38.301,9.099-3.446,73.767-47.513,99.188c-22.94,13.233-45.189,10.513-65.979,5.241
				c-19.171-4.93-36.394-11.078-50.662-6.875c-31.383,9.246,33.519,168.587-4.939,182.522
				c-26.831,9.722-64.084-76.03-114.986-135.964c-27.811-32.746-60.784-57.868-98.092-54.49
				c-104.852,9.491-168.782,154.884-263.197,124.226"/>
			<path style="fill:none;stroke:#ABB1B1;stroke-width:0.4483;stroke-miterlimit:10;" d="M547.637-83.481
				c-3.772,3.034,7.449,133.167-52.143,149.396C418.711,87.005,353.05-37.734,304.382-50.986c-4.819-1.312-9.388-1.717-13.815-0.567
				c-37.63,9.631-4.411,73.172-47.352,98.618c-22.483,13.322-44.383,11.2-65.202,6c-19.015-4.749-36.093-10.671-50.329-6.595
				c-32.31,9.253,28.429,163.527-9.767,178.593C90.276,235.967,53.457,155.533,3.283,98.366
				c-27.449-31.275-60.516-55.714-97.867-52.959c-104.521,7.708-170.668,144.814-261.587,115.292"/>
			<path style="fill:none;stroke:#ABB1B1;stroke-width:0.431;stroke-miterlimit:10;" d="M551.744-80.988
				c-5.03,4.046,3.843,128.81-55.475,143.949C419.961,82.669,354.144-37.532,305.385-49.037c-4.755-1.122-9.244-1.437-13.602-0.228
				c-36.934,10.254-5.375,72.583-47.191,98.048c-22.026,13.413-43.568,11.852-64.425,6.76c-18.851-4.602-35.794-10.268-49.996-6.314
				c-33.24,9.254,23.346,158.518-14.595,174.663C87.122,236,50.735,160.857,1.295,106.46
				c-27.089-29.805-60.246-53.558-97.642-51.428c-104.186,5.933-172.555,134.745-259.977,106.357"/>
			<path style="fill:none;stroke:#ABB1B1;stroke-width:0.4138;stroke-miterlimit:10;" d="M555.851-78.494
				c-6.287,5.057,0.237,124.452-58.807,138.502C421.21,78.334,355.274-37.343,306.389-47.089c-4.688-0.935-9.102-1.166-13.389,0.111
				c-36.257,10.804-6.339,71.997-47.03,97.477c-21.57,13.506-42.752,12.502-63.648,7.52c-18.686-4.455-35.497-9.869-49.662-6.034
				c-34.172,9.251,18.272,153.555-19.423,170.734c-29.268,13.339-65.227-56.54-113.93-108.165
				C-27.426,86.218-60.669,63.156-98.11,64.658c-103.848,4.166-174.442,124.675-258.367,97.423"/>
			<path style="fill:none;stroke:#ABB1B1;stroke-width:0.3966;stroke-miterlimit:10;" d="M559.958-76.001
				c-7.545,6.068-3.396,119.974-62.139,133.055C422.426,73.844,356.439-37.172,307.392-45.14c-4.618-0.75-8.96-0.895-13.176,0.45
				c-35.578,11.353-7.301,71.416-46.869,96.907c-21.113,13.601-41.936,13.151-62.871,8.28c-18.521-4.31-35.2-9.473-49.329-5.753
				c-35.106,9.241,13.207,148.632-24.25,166.804C80.818,236.14,45.277,171.501-2.682,122.649
				C-29.06,95.78-62.385,73.412-99.873,74.284c-103.508,2.407-176.329,114.605-256.756,88.489"/>
			<path style="fill:none;stroke:#ABB1B1;stroke-width:0.3793;stroke-miterlimit:10;" d="M564.065-73.507
				c-8.802,7.08-7.004,115.601-65.471,127.608c-74.92,15.387-140.957-91.124-190.199-97.292c-4.545-0.569-8.818-0.624-12.963,0.789
				c-34.9,11.899-8.263,70.84-46.708,96.337c-20.656,13.699-41.12,13.8-62.094,9.039c-18.356-4.166-34.905-9.08-48.996-5.473
				c-36.043,9.227,8.152,143.745-29.078,162.874C77.673,236.244,42.539,176.82-4.67,130.744
				C-30.698,105.34-64.1,83.671-101.636,83.91c-103.164,0.656-178.216,104.536-255.146,79.555"/>
			<path style="fill:none;stroke:#ABB1B1;stroke-width:0.3621;stroke-miterlimit:10;" d="M568.172-71.014
				c-10.06,8.091-10.61,111.229-68.803,122.161c-74.446,13.986-140.503-88.049-189.971-92.39c-4.47-0.392-8.676-0.353-12.75,1.128
				c-34.221,12.444-9.223,70.269-46.547,95.767c-20.198,13.798-40.303,14.447-61.316,9.799c-18.19-4.023-34.611-8.691-48.663-5.193
				c-36.981,9.206,3.11,138.889-33.906,158.945C74.534,236.37,39.792,182.138-6.658,138.838
				c-25.682-23.94-59.157-44.906-96.74-45.303c-102.819-1.086-180.102,94.466-253.536,70.621"/>
			<path style="fill:none;stroke:#ABB1B1;stroke-width:0.3448;stroke-miterlimit:10;" d="M572.279-68.52
				c-11.317,9.102-14.216,106.859-72.135,116.715c-73.971,12.588-140.021-85.005-189.742-87.488
				c-4.392-0.219-8.534-0.082-12.538,1.467c-33.543,12.987-10.181,69.702-46.386,95.196c-19.74,13.9-39.486,15.093-60.539,10.559
				c-18.024-3.882-34.317-8.305-48.33-4.912c-37.922,9.18-1.921,134.06-38.734,155.015c-32.471,18.484-66.837-30.577-112.522-71.099
				c-25.341-22.477-58.882-42.736-96.515-43.772c-102.472-2.821-181.989,84.396-251.926,61.687"/>
			<path style="fill:none;stroke:#ABB1B1;stroke-width:0.3276;stroke-miterlimit:10;" d="M576.386-66.027
				c-12.575,10.114-17.821,102.49-75.467,111.268c-73.495,11.191-139.515-81.998-189.514-82.586
				c-4.313-0.051-8.393,0.188-12.325,1.806c-32.864,13.528-11.138,69.141-46.225,94.626c-19.281,14.005-38.669,15.738-59.762,11.319
				c-17.857-3.741-34.025-7.921-47.997-4.632c-38.864,9.147-6.94,129.256-43.562,151.086
				c-33.252,19.821-67.261-24.089-112.169-61.833c-25.005-21.015-58.608-40.563-96.29-42.241
				c-102.124-4.546-183.876,74.327-250.316,52.753"/>
			<path style="fill:none;stroke:#ABB1B1;stroke-width:0.3103;stroke-miterlimit:10;" d="M580.493-63.533
				c-13.832,11.125-21.425,98.123-78.798,105.821c-73.018,9.797-138.99-79.031-189.286-77.684
				c-4.232,0.113-8.251,0.458-12.112,2.146c-32.186,14.067-12.092,68.585-46.064,94.056c-18.821,14.111-37.851,16.381-58.985,12.078
				c-17.69-3.602-33.733-7.539-47.664-4.352c-39.808,9.109-11.947,124.472-48.389,147.156
				c-34.022,21.177-67.695-17.6-111.817-52.566c-24.674-19.554-58.332-38.387-96.064-40.71
				c-101.776-6.264-185.763,64.257-248.706,43.819"/>
			<path style="fill:none;stroke:#ABB1B1;stroke-width:0.2931;stroke-miterlimit:10;" d="M584.6-61.04
				c-15.09,12.137-25.029,93.757-82.13,100.374c-72.54,8.405-138.451-76.11-189.058-72.781c-4.149,0.273-8.109,0.728-11.899,2.484
				c-31.508,14.604-13.045,68.035-45.903,93.485c-18.361,14.221-37.033,17.024-58.208,12.838
				c-17.523-3.464-33.441-7.16-47.331-4.071c-40.754,9.064-16.942,119.707-53.217,143.226
				c-34.781,22.551-68.142-11.11-111.465-43.299c-24.351-18.093-58.057-36.209-95.839-39.178
				c-101.426-7.973-187.65,54.188-247.096,34.885"/>
			<path style="fill:none;stroke:#ABB1B1;stroke-width:0.2759;stroke-miterlimit:10;" d="M588.707-58.546
				c-16.347,13.148-28.633,89.394-85.462,94.927c-72.061,7.016-137.904-73.237-188.829-67.879
				c-4.067,0.428-7.967,0.997-11.686,2.823c-30.831,15.139-13.994,67.49-45.742,92.915c-17.898,14.334-36.214,17.665-57.431,13.598
				c-17.355-3.327-33.15-6.784-46.997-3.791c-41.701,9.013-21.926,114.958-58.045,139.297
				c-35.528,23.941-68.602-4.617-111.113-34.033c-24.034-16.631-57.782-34.027-95.614-37.647
				c-101.077-9.673-189.536,44.118-245.486,25.951"/>
			<path style="fill:none;stroke:#ABB1B1;stroke-width:0.2586;stroke-miterlimit:10;" d="M592.814-56.053
				c-17.605,14.159-32.236,85.033-88.794,89.48c-71.583,5.629-137.355-70.416-188.601-62.977c-3.984,0.578-7.825,1.267-11.473,3.163
				c-30.155,15.671-14.94,66.951-45.581,92.345c-17.435,14.449-35.395,18.304-56.654,14.358c-17.188-3.191-32.86-6.41-46.664-3.511
				c-42.649,8.956-26.898,110.222-62.873,135.367c-36.262,25.346-69.077,1.881-110.761-24.766
				c-23.726-15.168-57.507-31.842-95.388-36.116c-100.728-11.366-191.423,34.049-243.876,17.016"/>
			<path style="fill:none;stroke:#ABB1B1;stroke-width:0.2414;stroke-miterlimit:10;" d="M596.921-53.559
				c-18.862,15.17-35.838,80.673-92.126,84.033c-71.103,4.245-136.811-67.649-188.373-58.075c-3.901,0.725-7.684,1.536-11.26,3.502
				c-29.479,16.201-15.882,66.417-45.42,91.774c-16.969,14.568-34.576,18.943-55.877,15.118c-17.02-3.057-32.57-6.037-46.331-3.23
				C113.934,88.454,125.674,185.06,89.833,211c-36.984,26.767-69.568,8.386-110.409-15.5
				c-23.427-13.701-57.232-29.654-95.163-34.585c-100.38-13.05-193.31,23.979-242.266,8.082"/>
			<path style="fill:none;stroke:#ABB1B1;stroke-width:0.2241;stroke-miterlimit:10;" d="M601.028-51.065
				c-20.12,16.182-39.441,76.316-95.458,78.586c-70.624,2.863-136.279-64.937-188.145-53.173c-3.82,0.866-7.542,1.805-11.047,3.841
				c-28.804,16.73-16.821,65.889-45.259,91.204c-16.502,14.69-33.757,19.579-55.1,15.877c-16.852-2.923-32.28-5.666-45.998-2.95
				c-44.55,8.821-36.81,100.784-72.528,127.508c-37.692,28.201-70.077,14.9-110.057-6.233
				c-23.138-12.231-56.958-27.463-94.937-33.054c-100.033-14.726-195.197,13.909-240.656-0.852"/>
			<path style="fill:none;stroke:#ABB1B1;stroke-width:0.2069;stroke-miterlimit:10;" d="M605.135-48.572
				c-21.377,17.193-43.043,71.96-98.79,73.139c-70.144,1.483-135.766-62.281-187.917-48.271c-3.74,1.005-7.401,2.073-10.835,4.18
				c-28.131,17.256-17.755,65.367-45.098,90.634c-16.032,14.815-32.937,20.215-54.323,16.637
				c-16.683-2.791-31.991-5.297-45.665-2.67c-45.502,8.744-41.75,96.079-77.356,123.578c-38.387,29.647-70.604,21.428-109.705,3.033
				c-22.858-10.754-56.684-25.269-94.712-31.523c-99.688-16.394-197.084,3.84-239.046-9.786"/>
			<path style="fill:none;stroke:#ABB1B1;stroke-width:0.1897;stroke-miterlimit:10;" d="M609.242-46.078
				c-22.635,18.205-46.646,67.607-102.122,67.692c-69.664,0.107-135.278-59.679-187.688-43.368
				c-3.661,1.139-7.26,2.342-10.622,4.518c-27.458,17.78-18.684,64.851-44.937,90.064c-15.559,14.943-32.117,20.848-53.546,17.397
				c-16.515-2.66-31.702-4.93-45.332-2.389c-46.455,8.66-46.68,91.381-82.184,119.649c-39.069,31.106-71.148,27.973-109.353,12.3
				c-22.589-9.267-56.411-23.072-94.487-29.991c-99.345-18.055-198.97-6.23-237.436-18.72"/>
			<path style="fill:none;stroke:#ABB1B1;stroke-width:0.1724;stroke-miterlimit:10;" d="M613.349-43.585
				c-23.892,19.216-50.248,63.256-105.454,62.246c-69.185-1.267-134.823-57.131-187.46-38.466c-3.585,1.271-7.119,2.61-10.409,4.858
				c-26.788,18.303-19.608,64.34-44.776,89.493c-15.083,15.074-31.297,21.48-52.768,18.156c-16.346-2.53-31.413-4.564-44.999-2.109
				c-47.409,8.569-51.6,86.689-87.012,115.719c-39.737,32.576-71.71,34.541-109.001,21.566c-22.33-7.769-56.139-20.872-94.261-28.46
				c-99.004-19.708-200.857-16.299-235.826-27.654"/>
			<path style="fill:none;stroke:#ABB1B1;stroke-width:0.1552;stroke-miterlimit:10;" d="M617.456-41.091
				c-25.149,20.227-53.851,58.908-108.786,56.799c-68.706-2.637-134.404-54.634-187.232-33.564c-3.511,1.4-6.978,2.878-10.196,5.197
				c-26.119,18.823-20.526,63.835-44.615,88.923c-14.603,15.209-30.477,22.111-51.992,18.916c-16.177-2.402-31.124-4.2-44.665-1.829
				c-48.364,8.47-56.511,82.003-91.84,111.79c-40.393,34.057-72.286,41.135-108.649,30.833
				c-22.08-6.256-55.869-18.669-94.036-26.929c-98.666-21.354-202.744-26.369-234.216-36.588"/>
			<path style="fill:none;stroke:#ABB1B1;stroke-width:0.1379;stroke-miterlimit:10;" d="M621.563-38.598
				c-26.407,21.239-57.454,54.561-112.118,51.352C441.217,8.748,375.418-39.43,322.441-15.908c-3.44,1.527-6.838,3.145-9.983,5.536
				c-25.452,19.342-21.437,63.335-44.453,88.353c-14.119,15.347-29.657,22.739-51.214,19.676
				c-16.008-2.275-30.835-3.838-44.332-1.548c-49.319,8.365-61.413,77.32-96.667,107.86
				c-41.035,35.547-72.874,47.761-108.297,40.099c-21.836-4.723-55.599-16.463-93.811-25.398
				c-98.331-22.993-204.631-36.439-232.606-45.522"/>
			<path style="fill:none;stroke:#ABB1B1;stroke-width:0.1207;stroke-miterlimit:10;" d="M625.67-36.104
				C598.006-13.854,564.612,14.112,510.22,9.8c-67.75-5.371-133.697-49.777-186.775-23.76c-3.371,1.653-6.697,3.413-9.77,5.875
				c-24.787,19.859-22.341,62.84-44.292,87.783c-13.631,15.489-28.836,23.366-50.437,20.436
				c-15.839-2.148-30.546-3.476-43.999-1.268c-50.276,8.253-66.307,72.642-101.495,103.93
				c-41.664,37.047-73.466,54.423-107.945,49.366c-21.595-3.168-55.33-14.254-93.585-23.867
				c-97.999-24.625-206.518-46.508-230.996-54.456"/>
			<path style="fill:none;stroke:#ABB1B1;stroke-width:0.1034;stroke-miterlimit:10;" d="M629.777-33.611
				c-28.922,23.262-64.663,45.875-118.782,40.458C443.722,0.113,377.578-40.561,324.448-12.01c-3.306,1.776-6.557,3.68-9.557,6.214
				c-24.124,20.374-23.238,62.349-44.131,87.212c-13.137,15.633-28.015,23.99-49.66,21.195c-15.67-2.023-30.257-3.116-43.666-0.988
				c-51.233,8.132-71.193,67.966-106.323,100.001C28.83,240.179-2.946,262.749-36.482,260.256
				c-21.353-1.587-55.064-12.043-93.36-22.335c-97.671-26.251-208.404-56.578-229.385-63.391"/>
			<path style="fill:none;stroke:#ABB1B1;stroke-width:0.0862;stroke-miterlimit:10;" d="M633.884-31.117
				C603.705-6.845,565.616,10.418,511.77,3.894C444.973-4.2,378.582-41.179,325.451-10.062c-3.243,1.899-6.418,3.947-9.344,6.553
				c-23.463,20.889-24.126,61.862-43.97,86.642c-12.638,15.781-27.194,24.613-48.883,21.955c-15.501-1.9-29.969-2.757-43.333-0.707
				c-52.19,8.005-76.07,63.292-111.151,96.071c-42.885,40.071-74.635,67.865-107.24,67.899
				c-21.104,0.022-54.798-9.829-93.134-20.804c-97.347-27.87-210.291-66.647-227.775-72.325"/>
			<path style="fill:none;stroke:#ABB1B1;stroke-width:0.069;stroke-miterlimit:10;" d="M637.991-28.624
				C606.554-3.34,566.101,8.675,512.545,0.94c-66.341-9.325-133.012-42.763-186.091-9.053c-3.184,2.022-6.278,4.214-9.131,6.892
				c-22.805,21.402-25.006,61.379-43.809,86.072c-12.132,15.932-26.374,25.234-48.106,22.715c-15.332-1.777-29.68-2.399-43-0.427
				c-53.148,7.87-80.94,58.62-115.979,92.141c-43.477,41.594-75.191,74.645-106.888,77.165
				c-20.842,1.657-54.535-7.612-92.909-19.273c-97.027-29.484-212.178-76.717-226.165-81.259"/>
			<path style="fill:none;stroke:#ABB1B1;stroke-width:0.0517;stroke-miterlimit:10;" d="M642.098-26.13
				C609.404,0.165,566.602,6.811,513.32-2.013C447.454-12.72,380.432-42.488,327.458-6.164c-3.128,2.145-6.139,4.481-8.919,7.231
				c-22.149,21.914-25.876,60.899-43.648,85.502c-11.62,16.085-25.553,25.853-47.329,23.475
				c-15.163-1.656-29.391-2.043-42.667-0.147c-54.107,7.728-85.803,53.95-120.807,88.212
				c-44.056,43.123-75.714,81.456-106.536,86.432c-20.558,3.318-54.273-5.393-92.684-17.742
				c-96.712-31.092-214.065-86.786-224.555-90.193"/>
			<path style="fill:none;stroke:#ABB1B1;stroke-width:0.0345;stroke-miterlimit:10;" d="M646.205-23.637
				C612.253,3.67,567.103,4.947,514.095-4.966c-65.392-12.09-132.818-38.202-185.634,0.751c-3.075,2.268-6.006,4.742-8.706,7.57
				c-21.539,22.385-26.736,60.421-43.487,84.931c-11.1,16.241-24.732,26.469-46.552,24.235c-14.994-1.536-29.102-1.687-42.333,0.134
				c-55.066,7.578-90.659,49.28-125.634,84.282c-44.625,44.66-76.195,88.293-106.184,95.698c-20.249,5-54.038-3.098-92.458-16.211
				c-96.464-32.51-215.952-96.856-222.945-99.127"/>
			<path style="fill:none;stroke:#ABB1B1;stroke-width:0.0172;stroke-miterlimit:10;" d="M650.312-21.143
				C615.103,7.175,567.603,3.083,514.871-7.92c-64.917-13.472-132.797-35.939-185.406,5.653c-3.024,2.391-5.865,5.012-8.493,7.909
				c-20.869,22.916-27.585,59.944-43.326,84.361c-10.572,16.399-23.909,27.059-45.775,24.994c-14.823-1.433-28.816-1.355-42,0.414
				c-56.037,7.321-95.509,44.61-130.462,80.353C14.227,241.965-17.22,290.908-46.424,300.729
				c-19.909,6.695-53.768-0.91-92.233-14.68c-96.129-34.198-217.838-106.926-221.335-108.061"/>
			<path style="fill:none;" d="M654.419-18.65C573.155,46.71,425.438-80.564,330.468-0.318
				c-42.515,35.924-38.283,122.946-96.443,117.792C72.666,103.177,6.824,285.085-48.412,308.823
				c-68.136,29.283-311.733-130.144-311.733-130.144"/>
		</g>
	</g>
</g>
</svg>
